<svg width="48" height="45" viewBox="0 0 48 45" fill="none" xmlns="http://www.w3.org/2000/svg">
<g clip-path="url(#clip0_2180_1020)">
<path d="M15.1544 44.9998C14.6201 44.745 14.448 44.3165 14.454 43.7494C14.4719 41.845 14.4612 39.9417 14.4612 38.0373C14.4612 37.8788 14.4612 37.7215 14.4612 37.5078C14.2604 37.5078 14.1014 37.5078 13.9425 37.5078C11.9442 37.5078 9.94708 37.5172 7.94879 37.5055C5.52383 37.4914 3.63071 36.0261 3.12755 33.7777C3.04508 33.4078 2.99967 33.0227 2.99967 32.6458C2.99847 23.4326 3.00445 14.2194 3.00923 5.00735C3.01162 2.6838 4.22589 0.907371 6.30665 0.251045C6.79547 0.0984114 7.32731 0.0150498 7.84003 0.0127016C11.5832 -0.00725822 15.3253 0.000960533 19.0673 0.00330875C19.7951 0.00330875 20.2218 0.401331 20.1764 1.02009C20.1453 1.44981 19.8298 1.79265 19.3924 1.85018C19.2167 1.87366 19.035 1.86896 18.8569 1.86896C15.2344 1.86896 11.6107 1.86662 7.98823 1.87131C6.47158 1.87249 5.34336 2.69436 5.0135 4.03871C4.95135 4.29115 4.93701 4.56002 4.93581 4.82184C4.93223 12.76 4.93223 20.6993 4.93223 28.6374C4.93223 28.7396 4.93223 28.8406 4.93223 28.9826C5.02664 28.9521 5.09596 28.9439 5.14855 28.911C6.06523 28.3192 7.07633 28.1196 8.16391 28.1208C17.0654 28.1314 25.9657 28.1267 34.8672 28.1267H35.4612C35.4612 27.9494 35.4612 27.7944 35.4612 27.6406C35.4612 26.2634 35.454 24.8873 35.4647 23.5101C35.4707 22.7728 36.1173 22.3184 36.7627 22.5767C37.1093 22.7152 37.3124 22.9688 37.3483 23.3387C37.3626 23.4843 37.3603 23.631 37.3603 23.7778C37.3603 27.9224 37.3603 32.067 37.3603 36.2116C37.3603 37.2307 37.0734 37.509 36.0265 37.509C32.851 37.509 29.6754 37.509 26.4999 37.509C26.323 37.509 26.1462 37.509 25.9095 37.509V38.0174C25.9095 39.9218 25.8928 41.8262 25.9203 43.7294C25.9286 44.2965 25.7697 44.7203 25.2617 45.001H24.7251C23.879 44.3611 23.0292 43.7259 22.1866 43.0801C21.5221 42.5706 20.8672 42.0481 20.1955 41.5221C19.9935 41.6782 19.8202 41.8133 19.6457 41.9483C18.3275 42.9662 17.008 43.9842 15.6898 45.0021H15.1532L15.1544 44.9998ZM35.4373 29.9935H34.9604C33.3505 29.9935 31.7407 29.9935 30.132 29.9935C22.7842 29.9935 15.4364 29.9947 8.08981 29.9912C7.42053 29.9912 6.7859 30.0957 6.21701 30.4655C5.1856 31.1359 4.70873 32.3723 5.03142 33.5382C5.36248 34.7357 6.40465 35.5881 7.66554 35.6034C9.85625 35.6304 12.047 35.614 14.2377 35.6128C14.3058 35.6128 14.3739 35.5811 14.4229 35.5682V33.7659C14.3273 33.7589 14.2687 33.7507 14.2102 33.7507C13.3461 33.7495 12.4808 33.7601 11.6167 33.7436C11.0598 33.7331 10.6773 33.3491 10.6654 32.8372C10.6534 32.3112 11.0143 31.9285 11.5653 31.8885C11.729 31.8768 11.8928 31.8815 12.0565 31.8815C16.1248 31.8815 20.1931 31.8815 24.2602 31.8815C25.7649 31.8815 27.2696 31.8756 28.7743 31.8885C29.33 31.8932 29.7197 32.2854 29.7316 32.7902C29.7436 33.308 29.3384 33.7248 28.7743 33.7448C28.313 33.7612 27.8504 33.7495 27.3879 33.7495C26.9039 33.7495 26.4198 33.7495 25.9358 33.7495V35.5893H35.4373V29.9923V29.9935ZM16.426 33.7648V42.0774C17.4467 41.2732 18.4099 40.5147 19.3732 39.7562C20.0365 39.2337 20.3568 39.2349 21.0309 39.7644C21.8807 40.4325 22.728 41.1018 23.5778 41.7686C23.6997 41.8637 23.8288 41.9506 23.9829 42.0622V33.7648H16.4272H16.426Z" fill="white"/>
<path d="M22.1093 11.7012C22.1093 10.8805 22.0985 10.0609 22.1152 9.24023C22.1212 8.97958 22.0268 8.84925 21.7901 8.74593C20.8531 8.33382 19.9269 7.89705 18.9899 7.48377C18.574 7.29943 18.2896 7.02939 18.2896 6.56209C18.2896 6.09245 18.5824 5.8271 18.9935 5.64159C23.0223 3.81938 27.0512 1.99599 31.0753 0.162036C31.4745 -0.0199506 31.833 -0.0152542 32.2274 0.164384C36.2383 1.99012 40.2528 3.80999 44.2697 5.62516C44.6988 5.81888 45.0048 6.09245 44.9988 6.57736C44.9928 7.03995 44.7 7.31117 44.2841 7.49433C43.3602 7.90058 42.4483 8.33265 41.5233 8.73419C41.2699 8.84456 41.1767 8.9784 41.1803 9.25667C41.1958 10.7501 41.1767 12.2448 41.191 13.7382C41.203 15.0004 40.6544 15.9068 39.5346 16.5338C36.8192 18.0507 33.9389 18.9113 30.7884 18.7211C28.0814 18.5568 25.611 17.6715 23.3319 16.2614C22.5527 15.7788 22.1559 15.0239 22.126 14.1186C22.0997 13.3144 22.12 12.5078 22.12 11.7023C22.1164 11.7023 22.1128 11.7023 22.1104 11.7023L22.1093 11.7012ZM21.5475 6.55387C21.7053 6.63724 21.7937 6.69007 21.8858 6.73234C25.0481 8.16592 28.2093 9.60186 31.3788 11.019C31.5462 11.0941 31.8139 11.0695 31.9884 10.9908C34.589 9.82728 37.1825 8.64848 39.776 7.47203C40.4202 7.17967 41.0632 6.8838 41.73 6.57736C41.6619 6.53039 41.6392 6.51043 41.6129 6.49752C38.3717 5.02519 35.1304 3.54933 31.8832 2.08992C31.7374 2.02417 31.5043 2.05235 31.3478 2.11927C30.5566 2.45624 29.7761 2.82021 28.9921 3.17479C26.5337 4.2902 24.0753 5.4056 21.5475 6.5527V6.55387ZM39.2836 9.76975C39.0637 9.86603 38.9167 9.92826 38.772 9.99401C36.6507 10.9556 34.5245 11.9055 32.4127 12.8858C31.8808 13.1324 31.4207 13.1347 30.8864 12.8858C28.7758 11.9019 26.6484 10.9533 24.5282 9.99166C24.3717 9.92121 24.2115 9.85781 24.0143 9.77445C24.0143 11.2268 23.9916 12.617 24.0346 14.0059C24.043 14.2631 24.2581 14.6141 24.484 14.7503C26.5875 16.0125 28.8499 16.8144 31.343 16.8766C34.0345 16.9435 36.4678 16.1205 38.7589 14.8031C39.0995 14.6071 39.2776 14.3147 39.28 13.939C39.2884 12.5782 39.2836 11.2174 39.2836 9.76975Z" fill="white"/>
</g>
<defs>
<clipPath id="clip0_2180_1020">
<rect width="42" height="45" fill="white" transform="translate(3)"/>
</clipPath>
</defs>
</svg>
