<svg width="56" height="49" viewBox="0 0 56 49" fill="none" xmlns="http://www.w3.org/2000/svg">
<path d="M37.499 4.60938C37.9105 4.60938 38.2441 4.94397 38.2441 5.35547C38.2439 5.76673 37.9104 6.10059 37.499 6.10059C34.1664 6.10072 31.175 8.32927 30.2256 11.5195C30.1184 11.8813 29.7602 12.1003 29.3955 12.042L29.3906 12.0488L29.2988 12.0215C28.9046 11.9039 28.6793 11.4893 28.7969 11.0947L28.9082 10.7471C30.127 7.18663 33.5041 4.6095 37.499 4.60938Z" fill="#F96407" stroke="#F96407" stroke-width="0.3"/>
<path d="M45.8317 34.5207H42.2605C41.9319 34.5207 41.6653 34.2541 41.6653 33.9255C41.6653 33.5968 41.9318 33.3303 42.2605 33.3303H45.8317C50.7545 33.3303 54.7599 29.3249 54.7599 24.4021C54.7599 19.4793 50.7545 15.4739 45.8317 15.4739H45.7458C45.5732 15.4739 45.4091 15.3991 45.296 15.2686C45.1829 15.1381 45.1319 14.965 45.1566 14.7941C45.2097 14.4234 45.2365 14.0509 45.2365 13.6883C45.2365 9.42192 41.7651 5.9505 37.4987 5.9505C35.8389 5.9505 34.2561 6.46918 32.9211 7.45084C32.6277 7.6664 32.2111 7.57074 32.0414 7.24804C28.2606 0.0485612 18.3854 -0.918256 13.2656 5.34467C11.1088 7.98314 10.2614 11.4154 10.9405 14.7605C11.0153 15.13 10.7326 15.4744 10.3572 15.4744H10.1187C5.19587 15.4744 1.19048 19.4798 1.19048 24.4026C1.19048 29.3253 5.19587 33.3307 10.1187 33.3307H13.6899C14.0185 33.3307 14.2851 33.5973 14.2851 33.9259C14.2851 34.2546 14.0185 34.5212 13.6899 34.5212H10.1187C4.53935 34.5212 0 29.9818 0 24.4025C0 18.9797 4.28804 14.5394 9.65141 14.2945C9.1476 10.824 10.111 7.32327 12.3439 4.59131C17.8253 -2.11459 28.3301 -1.36295 32.7708 6.11462C34.1874 5.22647 35.8085 4.76055 37.4985 4.76055C42.6675 4.76055 46.7634 9.16004 46.405 14.3001C51.719 14.5981 55.9501 19.015 55.9501 24.4021C55.9501 29.9818 51.4107 34.5207 45.8314 34.5207L45.8317 34.5207Z" fill="#F96407"/>
<path d="M27.8955 18.5586C36.1833 18.5588 42.9258 25.302 42.9258 33.5898C42.9256 41.8774 36.1832 48.6199 27.8955 48.6201C19.6077 48.6201 12.8645 41.8777 12.8643 33.5898C12.8643 25.302 19.6075 18.5586 27.8955 18.5586ZM27.8955 20.0498C20.4298 20.0498 14.3555 26.1243 14.3555 33.5898C14.3557 41.0554 20.4301 47.1289 27.8955 47.1289C35.3608 47.1287 41.4344 41.0551 41.4346 33.5898C41.4346 26.1243 35.3609 20.05 27.8955 20.0498Z" fill="#F96407" stroke="#F96407" stroke-width="0.3"/>
<path d="M28.1675 27.6633C28.4909 27.6633 28.7533 27.9259 28.7534 28.2493V39.5793C28.7534 39.9032 28.4909 40.1653 28.1675 40.1653C27.8441 40.1652 27.5815 39.9027 27.5815 39.5793V28.2493C27.5817 27.926 27.8442 27.6634 28.1675 27.6633Z" fill="#F96407" stroke="#F96407" stroke-width="0.3"/>
<path d="M27.7534 27.8364C27.982 27.6077 28.3528 27.6079 28.5815 27.8364L32.0679 31.3228C32.268 31.5229 32.2931 31.8317 32.1431 32.0591L32.0679 32.1509C31.9535 32.2657 31.803 32.3227 31.6538 32.3228C31.5043 32.3228 31.354 32.2651 31.2397 32.1509L28.1675 29.0786L25.0952 32.1499L25.0962 32.1509C24.8676 32.3799 24.4959 32.3797 24.2671 32.1509C24.0385 31.9221 24.0384 31.5515 24.2671 31.3228L27.7534 27.8364Z" fill="#F96407" stroke="#F96407" stroke-width="0.3"/>
</svg>
