<svg width="48" height="46" viewBox="0 0 48 46" fill="none" xmlns="http://www.w3.org/2000/svg">
<rect width="48" height="46" rx="23" fill="#141218" fill-opacity="0.16"/>
<path d="M39.3334 40.25V36.4167C39.3334 34.3833 38.5257 32.4333 37.0879 30.9955C35.6501 29.5577 33.7001 28.75 31.6667 28.75H16.3334C14.3001 28.75 12.35 29.5577 10.9123 30.9955C9.47448 32.4333 8.66675 34.3833 8.66675 36.4167V40.25M31.6667 13.4167C31.6667 17.6508 28.2343 21.0833 24.0001 21.0833C19.7659 21.0833 16.3334 17.6508 16.3334 13.4167C16.3334 9.18248 19.7659 5.75 24.0001 5.75C28.2343 5.75 31.6667 9.18248 31.6667 13.4167Z" stroke="#9665E7" stroke-width="4" stroke-linecap="round" stroke-linejoin="round"/>
</svg>
