<svg width="15" height="13" viewBox="0 0 15 13" fill="none" xmlns="http://www.w3.org/2000/svg">
<g clip-path="url(#clip0_2053_1549)">
<path d="M0.540774 8.18602C0.190546 7.83159 0.0095113 7.3601 0.000355801 6.8854C-0.00867762 6.41082 0.15429 5.93187 0.49048 5.56278C0.826426 5.19395 1.27382 5.00304 1.72415 4.99352C2.17473 4.98374 2.62896 5.15497 2.97943 5.50965L6.00526 8.578L12.0295 0.513402L12.2453 0.686946L12.0292 0.51263C12.0464 0.489087 12.066 0.469019 12.0877 0.45268C12.4461 0.125532 12.8959 -0.0221542 13.3356 0.0030605V0.00254591L13.3571 0.00460426C13.7994 0.0354794 14.2314 0.242601 14.5504 0.617734C14.8749 0.999171 15.022 1.48365 14.9974 1.9572H14.9979L14.996 1.97984C14.9672 2.43757 14.7773 2.88487 14.4333 3.21897L7.20366 12.4931L7.20414 12.4936C7.1906 12.5118 7.17534 12.5273 7.15873 12.541C6.82022 12.8542 6.39272 13.0078 5.96766 13.0001C5.53907 12.9923 5.11132 12.8205 4.77855 12.4835L0.540774 8.18602Z" fill="#67E26D"/>
</g>
<defs>
<clipPath id="clip0_2053_1549">
<rect width="15" height="13" fill="white"/>
</clipPath>
</defs>
</svg>
