<svg width="38" height="38" viewBox="0 0 38 38" fill="none" xmlns="http://www.w3.org/2000/svg">
<path d="M31.6667 9.50002H26.6712C26.6424 9.43163 26.6085 9.36548 26.5699 9.3021L23.8783 5.9391C23.5825 5.56714 23.2063 5.26694 22.778 5.06102C22.3497 4.85509 21.8803 4.74877 21.4051 4.75002H16.5949C16.1198 4.74835 15.6504 4.85432 15.2221 5.05999C14.7937 5.26565 14.4176 5.56567 14.1217 5.93752L11.4301 9.3021C11.3915 9.36548 11.3576 9.43163 11.3288 9.50002H6.33333C5.91341 9.50002 5.51068 9.66683 5.21375 9.96377C4.91681 10.2607 4.75 10.6634 4.75 11.0834C4.75 11.5033 4.91681 11.906 5.21375 12.2029C5.51068 12.4999 5.91341 12.6667 6.33333 12.6667H7.91667V30.0833C7.91666 30.9216 8.24899 31.7256 8.8408 32.3192C9.43261 32.9128 10.2356 33.2475 11.0738 33.25H26.9246C27.7631 33.2479 28.5665 32.9134 29.1586 32.3197C29.7508 31.7261 30.0833 30.9218 30.0833 30.0833V12.6667H31.6667C32.0866 12.6667 32.4893 12.4999 32.7863 12.2029C33.0832 11.906 33.25 11.5033 33.25 11.0834C33.25 10.6634 33.0832 10.2607 32.7863 9.96377C32.4893 9.66683 32.0866 9.50002 31.6667 9.50002ZM16.5949 7.91669H21.4051L22.6718 9.50002H15.3282L16.5949 7.91669ZM26.9246 30.0833H11.0833V12.6667H26.9167L26.9246 30.0833Z" fill="#F95050"/>
<path d="M22.1667 28.5C21.7467 28.5 21.344 28.3332 21.0471 28.0363C20.7501 27.7393 20.5833 27.3366 20.5833 26.9167V15.8333C20.5833 15.4134 20.7501 15.0107 21.0471 14.7137C21.344 14.4168 21.7467 14.25 22.1667 14.25C22.5866 14.25 22.9893 14.4168 23.2863 14.7137C23.5832 15.0107 23.75 15.4134 23.75 15.8333V26.9167C23.75 27.3366 23.5832 27.7393 23.2863 28.0363C22.9893 28.3332 22.5866 28.5 22.1667 28.5ZM15.8333 28.5C15.4134 28.5 15.0107 28.3332 14.7137 28.0363C14.4168 27.7393 14.25 27.3366 14.25 26.9167V15.8333C14.25 15.4134 14.4168 15.0107 14.7137 14.7137C15.0107 14.4168 15.4134 14.25 15.8333 14.25C16.2533 14.25 16.656 14.4168 16.9529 14.7137C17.2499 15.0107 17.4167 15.4134 17.4167 15.8333V26.9167C17.4167 27.3366 17.2499 27.7393 16.9529 28.0363C16.656 28.3332 16.2533 28.5 15.8333 28.5Z" fill="#F95050"/>
</svg>
