<svg width="5" height="25" viewBox="0 0 5 25" fill="none" xmlns="http://www.w3.org/2000/svg">
<path d="M4.11539 0V10.6716L3.65385 16.8657H1.34615L0.884615 10.6716V0H4.11539ZM2.5 20.1493C3.24359 20.1493 3.84615 20.3731 4.30769 20.8209C4.76923 21.2687 5 21.8532 5 22.5746C5 23.296 4.76923 23.8806 4.30769 24.3284C3.84615 24.7761 3.24359 25 2.5 25C1.75641 25 1.15385 24.7761 0.692308 24.3284C0.230769 23.8806 0 23.296 0 22.5746C0 21.8532 0.230769 21.2687 0.692308 20.8209C1.15385 20.3731 1.75641 20.1493 2.5 20.1493Z" fill="#F95050"/>
</svg>
