<svg width="34" height="32" viewBox="0 0 34 32" fill="none" xmlns="http://www.w3.org/2000/svg">
<path d="M26.2127 6.77498C23.8695 4.44271 20.6327 3 17.0571 3C9.9066 3 4.10888 8.76997 4.10888 15.8882C4.10888 18.2568 4.75085 20.4755 5.87015 22.383L5.83705 22.3223L4 29L10.863 27.2079C12.6495 28.1954 14.781 28.7763 17.0492 28.7763H17.0544C24.2049 28.7737 30 23.0029 30 15.8856C30 12.3282 28.5523 9.10811 26.2118 6.77584L26.2127 6.77498ZM17.0544 26.5992H17.0501C15.0301 26.5992 13.1391 26.0444 11.525 25.0794L11.5738 25.1062L11.1809 24.8748L7.10878 25.9386L8.19498 21.9859L7.93889 21.581C6.9067 19.9666 6.29348 17.9993 6.29348 15.889C6.29348 9.97426 11.1113 5.1788 17.0536 5.1788C22.9959 5.1788 27.8137 9.97426 27.8137 15.889C27.8137 21.8038 22.9976 26.5992 17.0544 26.5992ZM22.9567 18.5785C22.6335 18.4172 21.043 17.6395 20.7468 17.5311C20.4498 17.4236 20.2338 17.3707 20.0178 17.6933C19.8035 18.0149 19.1833 18.7398 18.9943 18.9548C18.8061 19.1707 18.6162 19.1967 18.2931 19.0363C17.2914 18.6323 16.4308 18.0938 15.6825 17.4306L15.6912 17.4384C14.9953 16.7968 14.3986 16.0624 13.9169 15.2526L13.8925 15.2076C13.7044 14.8859 13.8725 14.7116 14.0336 14.5512C14.1791 14.4073 14.3577 14.1749 14.5188 13.9877C14.646 13.8325 14.7549 13.6547 14.8376 13.464L14.8428 13.4492C14.8803 13.3738 14.9021 13.2862 14.9021 13.1926C14.9021 13.079 14.8698 12.9733 14.8141 12.8831L14.8158 12.8857C14.734 12.7244 14.0876 11.1395 13.8185 10.4945C13.5554 9.86675 13.288 9.95258 13.0903 9.94218C12.9021 9.93351 12.6861 9.93177 12.4701 9.93177C12.126 9.94044 11.8203 10.0948 11.6095 10.3332L11.6086 10.3349C10.91 10.9947 10.4763 11.925 10.4763 12.9559C10.4763 12.9785 10.4763 13.0019 10.4771 13.0244V13.0209C10.5912 14.2929 11.0703 15.4347 11.8072 16.365L11.7968 16.352C13.1939 18.4146 15.0563 20.0646 17.2417 21.1761L17.3236 21.2134C17.8009 21.4284 18.4124 21.6581 19.0378 21.8549L19.1676 21.8905C19.5526 22.0119 19.996 22.0821 20.4559 22.0821C20.7198 22.0821 20.9794 22.0587 21.2303 22.0145L21.2033 22.0179C22.1344 21.8246 22.907 21.2654 23.3783 20.5015L23.3861 20.4868C23.5298 20.1695 23.6135 19.7993 23.6135 19.41C23.6135 19.2496 23.5995 19.0926 23.5725 18.94L23.5751 18.9565C23.495 18.8221 23.279 18.7424 22.9549 18.5802L22.9567 18.5785Z" fill="white"/>
</svg>
