<svg width="48" height="48" viewBox="0 0 48 48" fill="none" xmlns="http://www.w3.org/2000/svg">
<g clip-path="url(#clip0_2180_1018)">
<path d="M24 29.25C26.8995 29.25 29.25 26.8995 29.25 24C29.25 21.1005 26.8995 18.75 24 18.75C21.1005 18.75 18.75 21.1005 18.75 24C18.75 26.8995 21.1005 29.25 24 29.25Z" stroke="#9665E7" stroke-width="4" stroke-linecap="round" stroke-linejoin="round"/>
<path d="M36.95 29.25C36.717 29.7778 36.6476 30.3633 36.7505 30.931C36.8534 31.4987 37.1241 32.0226 37.5275 32.435L37.6325 32.54C37.9579 32.8651 38.2161 33.2511 38.3922 33.676C38.5683 34.1009 38.659 34.5563 38.659 35.0163C38.659 35.4762 38.5683 35.9316 38.3922 36.3565C38.2161 36.7814 37.9579 37.1674 37.6325 37.4925C37.3074 37.8179 36.9214 38.0761 36.4965 38.2522C36.0716 38.4283 35.6162 38.519 35.1562 38.519C34.6963 38.519 34.2409 38.4283 33.816 38.2522C33.3911 38.0761 33.0051 37.8179 32.68 37.4925L32.575 37.3875C32.1626 36.9841 31.6387 36.7134 31.071 36.6105C30.5033 36.5076 29.9178 36.577 29.39 36.81C28.8724 37.0318 28.431 37.4002 28.12 37.8697C27.8091 38.3392 27.6422 38.8894 27.64 39.4525V39.75C27.64 40.6783 27.2713 41.5685 26.6149 42.2249C25.9585 42.8813 25.0683 43.25 24.14 43.25C23.2117 43.25 22.3215 42.8813 21.6651 42.2249C21.0087 41.5685 20.64 40.6783 20.64 39.75V39.5925C20.6265 39.0133 20.439 38.4515 20.1019 37.9802C19.7648 37.509 19.2938 37.15 18.75 36.95C18.2222 36.717 17.6367 36.6476 17.069 36.7505C16.5013 36.8534 15.9774 37.1241 15.565 37.5275L15.46 37.6325C15.1349 37.9579 14.7489 38.2161 14.324 38.3922C13.8991 38.5683 13.4437 38.659 12.9837 38.659C12.5238 38.659 12.0684 38.5683 11.6435 38.3922C11.2186 38.2161 10.8326 37.9579 10.5075 37.6325C10.1821 37.3074 9.92393 36.9214 9.74779 36.4965C9.57166 36.0716 9.481 35.6162 9.481 35.1562C9.481 34.6963 9.57166 34.2409 9.74779 33.816C9.92393 33.3911 10.1821 33.0051 10.5075 32.68L10.6125 32.575C11.0159 32.1626 11.2866 31.6387 11.3895 31.071C11.4924 30.5033 11.423 29.9178 11.19 29.39C10.9682 28.8724 10.5998 28.431 10.1303 28.12C9.66081 27.8091 9.11063 27.6422 8.5475 27.64H8.25C7.32174 27.64 6.4315 27.2713 5.77513 26.6149C5.11875 25.9585 4.75 25.0683 4.75 24.14C4.75 23.2117 5.11875 22.3215 5.77513 21.6651C6.4315 21.0087 7.32174 20.64 8.25 20.64H8.4075C8.98674 20.6265 9.54851 20.439 10.0198 20.1019C10.491 19.7648 10.85 19.2938 11.05 18.75C11.283 18.2222 11.3524 17.6367 11.2495 17.069C11.1466 16.5013 10.8759 15.9774 10.4725 15.565L10.3675 15.46C10.0421 15.1349 9.78393 14.7489 9.60779 14.324C9.43166 13.8991 9.341 13.4437 9.341 12.9837C9.341 12.5238 9.43166 12.0684 9.60779 11.6435C9.78393 11.2186 10.0421 10.8326 10.3675 10.5075C10.6926 10.1821 11.0786 9.92393 11.5035 9.74779C11.9284 9.57166 12.3838 9.481 12.8438 9.481C13.3037 9.481 13.7591 9.57166 14.184 9.74779C14.6089 9.92393 14.9949 10.1821 15.32 10.5075L15.425 10.6125C15.8374 11.0159 16.3613 11.2866 16.929 11.3895C17.4967 11.4924 18.0822 11.423 18.61 11.19H18.75C19.2676 10.9682 19.709 10.5998 20.02 10.1303C20.3309 9.66081 20.4978 9.11063 20.5 8.5475V8.25C20.5 7.32174 20.8687 6.4315 21.5251 5.77513C22.1815 5.11875 23.0717 4.75 24 4.75C24.9283 4.75 25.8185 5.11875 26.4749 5.77513C27.1313 6.4315 27.5 7.32174 27.5 8.25V8.4075C27.5022 8.97063 27.6691 9.52081 27.98 9.99031C28.291 10.4598 28.7324 10.8282 29.25 11.05C29.7778 11.283 30.3633 11.3524 30.931 11.2495C31.4987 11.1466 32.0226 10.8759 32.435 10.4725L32.54 10.3675C32.8651 10.0421 33.2511 9.78393 33.676 9.60779C34.1009 9.43166 34.5563 9.341 35.0163 9.341C35.4762 9.341 35.9316 9.43166 36.3565 9.60779C36.7814 9.78393 37.1674 10.0421 37.4925 10.3675C37.8179 10.6926 38.0761 11.0786 38.2522 11.5035C38.4283 11.9284 38.519 12.3838 38.519 12.8438C38.519 13.3037 38.4283 13.7591 38.2522 14.184C38.0761 14.6089 37.8179 14.9949 37.4925 15.32L37.3875 15.425C36.9841 15.8374 36.7134 16.3613 36.6105 16.929C36.5076 17.4967 36.577 18.0822 36.81 18.61V18.75C37.0318 19.2676 37.4002 19.709 37.8697 20.02C38.3392 20.3309 38.8894 20.4978 39.4525 20.5H39.75C40.6783 20.5 41.5685 20.8687 42.2249 21.5251C42.8813 22.1815 43.25 23.0717 43.25 24C43.25 24.9283 42.8813 25.8185 42.2249 26.4749C41.5685 27.1313 40.6783 27.5 39.75 27.5H39.5925C39.0294 27.5022 38.4792 27.6691 38.0097 27.98C37.5402 28.291 37.1718 28.7324 36.95 29.25Z" stroke="#9665E7" stroke-width="4" stroke-linecap="round" stroke-linejoin="round"/>
</g>
<defs>
<clipPath id="clip0_2180_1018">
<rect width="42" height="42" fill="white" transform="translate(3 3)"/>
</clipPath>
</defs>
</svg>
