<svg width="793" height="718" viewBox="0 0 793 718" fill="none" xmlns="http://www.w3.org/2000/svg">
<path d="M681.948 82.7433L47.0114 0.359907C21.0852 -3.03036 -1.4519 17.9893 0.242617 44.0943L34.3025 594.165C35.8275 618.066 57.1785 635.695 80.9018 632.814L447.257 586.876C468.1 584.333 483.689 566.534 483.689 545.684C483.689 524.664 499.448 507.035 520.291 504.492L681.609 484.998C702.452 482.456 718.211 464.826 718.211 443.807V123.935C718.041 103.085 702.621 85.4556 681.948 82.7433Z" fill="#EBF2FF"/>
<mask id="mask0_2277_1552" style="mask-type:luminance" maskUnits="userSpaceOnUse" x="0" y="0" width="719" height="633">
<path d="M47.0114 0.359907L681.948 82.9129C702.621 85.6251 718.041 103.254 718.041 124.105V443.637C718.041 464.657 702.282 482.286 681.44 484.829L520.121 504.323C499.279 506.865 483.52 524.495 483.52 545.515C483.52 566.534 467.93 584.164 447.088 586.706L80.9018 632.644C57.1785 635.696 35.8275 617.897 34.3025 593.995L0.0731662 44.0943C-1.4519 17.9893 21.0852 -3.03036 47.0114 0.359907Z" fill="white"/>
</mask>
<g mask="url(#mask0_2277_1552)">
<path d="M-50.7624 -29.3048L-78.5526 297.178H146.31L121.909 -44.0525L-50.7624 -29.3048Z" stroke="#9DBCFE" stroke-width="0.75" stroke-miterlimit="10"/>
</g>
<mask id="mask1_2277_1552" style="mask-type:luminance" maskUnits="userSpaceOnUse" x="0" y="0" width="719" height="633">
<path d="M47.0114 0.359907L681.948 82.9129C702.621 85.6251 718.041 103.254 718.041 124.105V443.637C718.041 464.657 702.282 482.286 681.44 484.829L520.121 504.323C499.279 506.865 483.52 524.495 483.52 545.515C483.52 566.534 467.93 584.164 447.088 586.706L80.9018 632.644C57.1785 635.696 35.8275 617.897 34.3025 593.995L0.0731662 44.0943C-1.4519 17.9893 21.0852 -3.03036 47.0114 0.359907Z" fill="white"/>
</mask>
<g mask="url(#mask1_2277_1552)">
<path d="M70.0568 299.551L57.009 -76.7686" stroke="#9DBCFE" stroke-width="0.75" stroke-miterlimit="10"/>
</g>
<mask id="mask2_2277_1552" style="mask-type:luminance" maskUnits="userSpaceOnUse" x="0" y="0" width="719" height="633">
<path d="M47.0114 0.359907L681.948 82.9129C702.621 85.6251 718.041 103.254 718.041 124.105V443.637C718.041 464.657 702.282 482.286 681.44 484.829L520.121 504.323C499.279 506.865 483.52 524.495 483.52 545.515C483.52 566.534 467.93 584.164 447.088 586.706L80.9018 632.644C57.1785 635.696 35.8275 617.897 34.3025 593.995L0.0731662 44.0943C-1.4519 17.9893 21.0852 -3.03036 47.0114 0.359907Z" fill="white"/>
</mask>
<g mask="url(#mask2_2277_1552)">
<path d="M462.508 83.5908L272.891 65.4529H233.07V81.5566H272.721L474.03 97.3214" stroke="#9DBCFE" stroke-width="0.75" stroke-miterlimit="10"/>
</g>
<mask id="mask3_2277_1552" style="mask-type:luminance" maskUnits="userSpaceOnUse" x="0" y="0" width="719" height="633">
<path d="M47.0114 0.359907L681.948 82.9129C702.621 85.6251 718.041 103.254 718.041 124.105V443.637C718.041 464.657 702.282 482.286 681.44 484.829L520.121 504.323C499.279 506.865 483.52 524.495 483.52 545.515C483.52 566.534 467.93 584.164 447.088 586.706L80.9018 632.644C57.1785 635.696 35.8275 617.897 34.3025 593.995L0.0731662 44.0943C-1.4519 17.9893 21.0852 -3.03036 47.0114 0.359907Z" fill="white"/>
</mask>
<g mask="url(#mask3_2277_1552)">
<path d="M314.746 22.9052L315.085 69.5213L380.662 75.7933V3.91968" stroke="#9DBCFE" stroke-width="0.75" stroke-miterlimit="10"/>
</g>
<mask id="mask4_2277_1552" style="mask-type:luminance" maskUnits="userSpaceOnUse" x="0" y="0" width="719" height="633">
<path d="M47.0114 0.359907L681.948 82.9129C702.621 85.6251 718.041 103.254 718.041 124.105V443.637C718.041 464.657 702.282 482.286 681.44 484.829L520.121 504.323C499.279 506.865 483.52 524.495 483.52 545.515C483.52 566.534 467.93 584.164 447.088 586.706L80.9018 632.644C57.1785 635.696 35.8275 617.897 34.3025 593.995L0.0731662 44.0943C-1.4519 17.9893 21.0852 -3.03036 47.0114 0.359907Z" fill="white"/>
</mask>
<g mask="url(#mask4_2277_1552)">
<path d="M400.149 11.0393V77.658" stroke="#9DBCFE" stroke-width="0.75" stroke-miterlimit="10"/>
</g>
<mask id="mask5_2277_1552" style="mask-type:luminance" maskUnits="userSpaceOnUse" x="0" y="0" width="719" height="633">
<path d="M47.0114 0.359907L681.948 82.9129C702.621 85.6251 718.041 103.254 718.041 124.105V443.637C718.041 464.657 702.282 482.286 681.44 484.829L520.121 504.323C499.279 506.865 483.52 524.495 483.52 545.515C483.52 566.534 467.93 584.164 447.088 586.706L80.9018 632.644C57.1785 635.696 35.8275 617.897 34.3025 593.995L0.0731662 44.0943C-1.4519 17.9893 21.0852 -3.03036 47.0114 0.359907Z" fill="white"/>
</mask>
<g mask="url(#mask5_2277_1552)">
<path d="M128.348 66.131L-44.1538 51.7224" stroke="#9DBCFE" stroke-width="0.75" stroke-miterlimit="10"/>
</g>
<mask id="mask6_2277_1552" style="mask-type:luminance" maskUnits="userSpaceOnUse" x="0" y="0" width="719" height="633">
<path d="M47.0114 0.359907L681.948 82.9129C702.621 85.6251 718.041 103.254 718.041 124.105V443.637C718.041 464.657 702.282 482.286 681.44 484.829L520.121 504.323C499.279 506.865 483.52 524.495 483.52 545.515C483.52 566.534 467.93 584.164 447.088 586.706L80.9018 632.644C57.1785 635.696 35.8275 617.897 34.3025 593.995L0.0731662 44.0943C-1.4519 17.9893 21.0852 -3.03036 47.0114 0.359907Z" fill="white"/>
</mask>
<g mask="url(#mask6_2277_1552)">
<path d="M648.566 59.6895V99.1861L559.265 90.8799V29.5161" stroke="#9DBCFE" stroke-width="0.75" stroke-miterlimit="10"/>
</g>
<mask id="mask7_2277_1552" style="mask-type:luminance" maskUnits="userSpaceOnUse" x="0" y="0" width="719" height="633">
<path d="M47.0114 0.359907L681.948 82.9129C702.621 85.6251 718.041 103.254 718.041 124.105V443.637C718.041 464.657 702.282 482.286 681.44 484.829L520.121 504.323C499.279 506.865 483.52 524.495 483.52 545.515C483.52 566.534 467.93 584.164 447.088 586.706L80.9018 632.644C57.1785 635.696 35.8275 617.897 34.3025 593.995L0.0731662 44.0943C-1.4519 17.9893 21.0852 -3.03036 47.0114 0.359907Z" fill="white"/>
</mask>
<g mask="url(#mask7_2277_1552)">
<path d="M12.9515 545.514L757.524 460.08" stroke="#9DBCFE" stroke-width="0.75" stroke-miterlimit="10"/>
</g>
<path d="M254.59 474.149V649.087C254.59 649.087 264.249 659.427 267.13 676.887" stroke="#1F296F" stroke-width="6" stroke-miterlimit="10"/>
<path d="M204.602 684.007C204.602 659.597 224.428 639.933 248.659 639.933H261.538C285.939 639.933 305.595 659.766 305.595 684.007" stroke="#1F296F" stroke-width="6" stroke-miterlimit="10"/>
<path d="M204.602 689.431C211.527 689.431 217.141 683.815 217.141 676.887C217.141 669.959 211.527 664.343 204.602 664.343C197.676 664.343 192.062 669.959 192.062 676.887C192.062 683.815 197.676 689.431 204.602 689.431Z" fill="#1F296F"/>
<path d="M307.332 689.112C314.071 687.515 318.24 680.756 316.643 674.014C315.047 667.273 308.29 663.102 301.551 664.699C294.812 666.296 290.643 673.055 292.239 679.797C293.835 686.538 300.593 690.709 307.332 689.112Z" fill="#1F296F"/>
<path d="M270.051 689.115C276.79 687.518 280.96 680.759 279.363 674.017C277.767 667.276 271.01 663.105 264.271 664.702C257.532 666.299 253.363 673.059 254.959 679.8C256.555 686.542 263.312 690.712 270.051 689.115Z" fill="#1F296F"/>
<path d="M259.674 614.845H248.829C246.626 614.845 244.762 616.71 244.762 618.914V635.696C244.762 637.899 246.626 639.764 248.829 639.764H259.674C261.876 639.764 263.74 637.899 263.74 635.696V618.914C263.74 616.71 261.876 614.845 259.674 614.845Z" fill="#1F296F"/>
<path d="M696.69 525.851L563.501 542.463C549.945 544.158 539.947 556.194 540.964 569.924L544.692 619.592C545.878 635.187 560.451 646.205 575.871 642.815L697.877 616.371C709.738 613.828 718.211 603.319 718.211 591.283V544.837C718.041 533.31 708.044 524.495 696.69 525.851Z" fill="#EBF2FF"/>
<path d="M777.18 681.634H784.636V390.24H767.86L777.18 681.634Z" fill="#B1E3F1"/>
<path d="M334.741 681.634H342.197V390.24H325.421L334.741 681.634Z" fill="#9DBCFE"/>
<path d="M387.271 660.445C378.629 657.224 353.042 628.915 353.042 628.915C351.178 633.831 350.839 639.086 352.194 644.171L359.989 672.48C361.514 677.904 366.428 681.634 371.851 681.634H408.452C413.197 681.634 415.569 676.887 412.011 673.667C410.486 672.141 389.643 661.292 387.271 660.445Z" fill="#25293F"/>
<path d="M569.432 611.964C558.418 615.015 549.098 622.304 543.167 632.136L533.339 648.409L508.26 681.803L526.391 699.602L579.26 612.303C580.785 610.438 576.041 610.099 569.432 611.964Z" fill="#1F296F"/>
<path d="M576.718 612.303C563.332 617.049 552.317 627.389 544.861 641.798L525.713 686.21C523.341 690.787 522.155 695.534 526.052 699.263C529.611 702.484 544.014 701.806 546.895 694.008L568.076 655.868C575.024 646.375 579.769 634.509 581.971 621.287L582.31 618.914C582.988 615.015 579.769 611.116 576.718 612.303Z" fill="#25293F"/>
<path d="M324.574 223.778L300.511 221.575L354.906 307.687C360.159 294.974 368.292 284.634 382.187 281.752L361.853 247.51C354.058 233.949 340.163 225.304 324.574 223.778Z" fill="#AC64F2"/>
<path d="M348.466 297.178C348.466 297.178 357.108 274.293 377.612 273.446" stroke="white" stroke-width="0.75" stroke-miterlimit="10"/>
<path d="M463.355 201.742L458.949 207.166C459.118 209.37 458.271 211.743 455.052 212.082L458.949 207.166C458.78 204.454 457.255 201.742 457.255 201.742H463.355L470.133 193.436L455.052 190.723C451.324 190.045 447.596 191.062 444.884 193.605L427.939 208.522C423.872 212.082 420.483 216.659 418.281 221.744L388.288 291.414L382.526 281.752C368.631 284.634 360.328 294.974 355.244 307.687L374.562 338.2C383.035 351.761 403.538 349.218 408.622 334.132L445.562 223.948C453.527 222.083 458.102 215.981 458.102 215.981C459.627 216.659 465.897 218.693 470.472 216.32C474.539 214.286 474.2 205.471 475.047 200.386C473.691 201.403 472.166 201.911 470.472 201.911H463.355V201.742Z" fill="#FF6089"/>
<path d="M455.052 212.082C458.441 211.743 459.119 209.539 458.949 207.166L455.052 212.082Z" fill="#FF6089"/>
<path d="M471.15 192.249L470.133 193.605L463.355 201.911H470.133C471.828 201.911 473.353 201.403 474.708 200.386C474.878 200.216 475.047 200.047 475.217 199.877C476.742 198.521 476.403 196.317 475.047 195.131C474.03 193.097 471.15 192.249 471.15 192.249Z" fill="#FF6089"/>
<path d="M170.372 468.047C170.372 480.082 180.709 489.575 192.571 488.389L359.65 473.98L445.223 451.096L431.667 431.432L170.372 468.047Z" fill="#25293F"/>
<path d="M261.199 224.795H137.499C127.501 224.795 120.214 233.949 122.248 243.781L170.542 468.216L316.101 460.588L276.619 237.678C275.263 230.22 268.824 224.795 261.199 224.795Z" fill="#25293F"/>
<path d="M267.638 221.066H143.938C133.94 221.066 126.654 230.22 128.687 240.052L176.981 464.487L322.54 456.859L283.058 234.119C281.702 226.491 275.263 221.066 267.638 221.066Z" fill="#1F296F"/>
<path d="M176.981 464.318L324.065 474.149L459.966 455.503L322.54 456.69L176.981 464.318Z" fill="#25293F"/>
<path d="M438.276 409.395L272.891 403.462L291.022 474.149L406.08 455.673L359.65 610.438L388.118 620.27L464.033 450.926C472.675 431.771 459.119 410.243 438.276 409.395Z" fill="#404DA5"/>
<path d="M438.276 409.395L272.891 403.462L291.022 474.149L406.08 455.673L359.65 610.438L388.118 620.27L464.033 450.926C472.675 431.771 459.119 410.243 438.276 409.395Z" fill="#0C50AA"/>
<path d="M384.729 500.254L321.015 445.332L315.084 390.071L213.413 397.021C213.413 397.021 202.907 422.109 211.38 446.01C218.158 465.165 261.029 491.609 298.309 516.019C306.612 521.444 314.746 526.529 322.54 531.275C352.364 549.244 375.918 561.449 375.918 561.449L508.768 681.634L528.086 655.868L406.25 518.731L384.729 500.254Z" fill="#1E7BF5"/>
<path d="M315.084 390.24L213.413 397.19C213.413 397.19 202.907 422.278 211.38 446.18C218.158 465.335 261.029 491.779 298.309 516.189C306.612 521.613 314.746 526.698 322.54 531.445C327.454 534.496 332.369 537.378 336.944 539.92C336.435 537.547 336.266 535.005 336.266 532.462C336.266 510.764 353.042 492.965 374.223 491.44L321.015 445.332L315.084 390.24Z" fill="#0C50AA"/>
<path d="M351.855 256.664C355.244 241.916 345.755 226.83 330.674 224.457C329.996 224.287 329.488 224.287 328.81 224.287L252.048 217.167C235.272 215.642 221.377 229.711 223.072 246.493L232.9 340.573L213.413 397.36L308.815 422.787C314.915 424.482 321.354 423.635 326.946 420.414L335.588 415.498C340.163 412.955 342.874 407.87 342.536 402.445L336.266 325.825L353.042 294.465C356.431 288.193 357.278 280.904 355.753 273.954L351.855 256.664Z" fill="#8B41D2"/>
<path d="M336.266 325.825L328.132 340.573" stroke="#1F296F" stroke-width="0.75" stroke-miterlimit="10"/>
<path d="M229.342 305.823L261.707 251.07L228.494 297.178L229.342 305.823Z" fill="#1F296F"/>
<path d="M265.774 339.048C265.774 339.048 318.812 348.54 354.397 338.539C349.314 337.691 344.739 336.674 340.672 335.488L265.774 339.048Z" fill="white"/>
<path d="M354.397 338.539C376.765 341.929 406.419 339.895 423.195 333.962C443.698 326.673 450.646 318.197 450.646 318.197L375.748 327.86C370.326 332.606 362.87 336.166 354.397 338.539Z" fill="white"/>
<path d="M284.583 212.591L280.686 221.066C279.669 223.439 278.991 226.152 279.16 228.694C279.33 234.966 280.008 247.171 283.905 260.393C284.244 261.41 285.43 261.919 286.447 261.41L308.815 247.51C308.815 247.51 292.208 238.018 284.583 212.591Z" fill="white"/>
<path d="M317.965 216.828L310.17 219.88C310.17 219.88 318.473 240.56 308.645 247.51L325.252 261.58C326.438 262.597 328.132 261.749 328.132 260.224C327.793 252.596 326.607 235.475 321.524 223.439L317.965 216.828Z" fill="white"/>
<path d="M189.52 284.125L161.222 328.368L191.893 348.371L224.936 302.432C215.447 290.906 204.771 282.26 189.52 284.125Z" fill="#FF6089"/>
<path d="M246.287 216.998C238.323 216.32 230.528 220.049 226.122 226.83L189.521 284.125C204.771 282.26 215.447 290.906 224.936 302.432L261.877 251.07C271.366 237.509 262.893 218.523 246.287 216.998Z" fill="#AC64F2"/>
<path d="M388.288 291.414L380.662 308.705" stroke="#1F296F" stroke-width="0.75" stroke-miterlimit="10"/>
<path d="M488.434 183.265C480.47 187.503 450.646 191.232 450.646 191.232L466.574 199.199C466.574 199.199 469.964 197.504 481.147 193.436C495.551 188.35 496.398 179.027 488.434 183.265Z" fill="#FF6089"/>
<path d="M457.763 196.148C453.866 196.148 450.815 199.368 450.815 203.098C450.815 206.997 454.035 210.048 457.763 210.048C461.491 210.048 464.711 206.827 464.711 203.098C464.711 199.199 461.66 196.148 457.763 196.148Z" fill="#FF6089"/>
<path d="M455.052 190.723L473.691 194.114C476.233 194.622 477.25 197.843 475.386 199.708" stroke="#1F296F" stroke-width="0.75" stroke-miterlimit="10"/>
<path d="M475.386 199.708C474.03 201.064 472.166 201.742 470.302 201.742H457.424C457.424 201.742 459.288 209.878 450.815 211.912" stroke="#1F296F" stroke-width="0.75" stroke-miterlimit="10"/>
<path d="M457.763 215.811C457.763 215.811 453.188 214.286 453.696 212.421C454.205 210.556 459.627 209.878 459.627 209.878" stroke="#1F296F" stroke-width="0.75" stroke-miterlimit="10"/>
<path d="M474.03 205.81C474.03 205.81 467.083 208.692 459.966 206.149" stroke="#1F296F" stroke-width="0.75" stroke-miterlimit="10"/>
<path d="M175.625 316.841C166.305 318.197 159.527 326.334 159.866 335.657C160.205 347.184 171.05 355.66 182.234 353.117L299.156 327.521L296.783 299.381L175.625 316.841Z" fill="#FF6089"/>
<path d="M452.849 316.502C451.663 322.944 457.085 328.707 463.524 328.029L526.73 322.096L529.949 302.433L461.83 308.366C457.255 308.705 453.696 312.095 452.849 316.502Z" fill="#FF6089"/>
<path d="M456.577 317.18C456.238 319.045 456.746 320.74 457.932 322.266C459.119 323.622 460.813 324.469 462.677 324.469C462.847 324.469 463.016 324.469 463.355 324.469L527.069 319.893L529.441 304.975L462.169 312.264C459.288 312.434 457.085 314.468 456.577 317.18Z" fill="white"/>
<path d="M526.73 322.266H585.36L588.58 302.433H529.949L526.73 322.266Z" fill="#D34F65"/>
<path d="M526.899 319.723H586.207L588.58 304.975H529.441L526.899 319.723Z" fill="#B1E3F1"/>
<path d="M463.863 315.316L529.441 308.705H587.563" stroke="#D34F65" stroke-width="0.75" stroke-miterlimit="10"/>
<path d="M463.863 319.554L528.255 313.112H576.21" stroke="#D34F65" stroke-width="0.75" stroke-miterlimit="10"/>
<path d="M586.377 316.333L526.899 317.519L481.825 320.74" stroke="#D34F65" stroke-width="0.75" stroke-miterlimit="10"/>
<path d="M423.534 299.212C422.347 305.653 427.77 311.417 434.209 310.739L497.415 304.806L500.634 285.142L432.515 291.075C427.939 291.414 424.211 294.804 423.534 299.212Z" fill="#14C664"/>
<path d="M427.262 299.89C426.923 301.754 427.431 303.45 428.617 304.975C429.803 306.331 431.498 307.179 433.362 307.179C433.531 307.179 433.701 307.179 434.04 307.179L497.754 302.602L500.126 287.685L432.853 294.974C429.973 295.143 427.77 297.178 427.262 299.89Z" fill="white"/>
<path d="M497.415 304.806H556.045L559.265 285.142H500.634L497.415 304.806Z" fill="#14C664"/>
<path d="M497.584 302.433H556.892L559.265 287.515H499.956L497.584 302.433Z" fill="#B1E3F1"/>
<path d="M434.548 298.025L499.956 291.414H558.248" stroke="#8EC198" stroke-width="0.75" stroke-miterlimit="10"/>
<path d="M434.548 302.094L498.77 295.822H546.895" stroke="#8EC198" stroke-width="0.75" stroke-miterlimit="10"/>
<path d="M557.062 299.042L497.584 300.229L452.34 303.45" stroke="#8EC198" stroke-width="0.75" stroke-miterlimit="10"/>
<path d="M468.608 288.193L559.265 285.142L590.444 282.26L531.814 280.735L468.608 288.193Z" fill="#A03C52"/>
<path d="M457.932 276.667C456.746 283.108 462.169 288.871 468.608 288.193L531.813 282.26L535.033 262.597L466.913 268.53C462.338 268.869 458.78 272.259 457.932 276.667Z" fill="#AC64F2"/>
<path d="M461.66 277.345C461.322 279.209 461.83 280.904 463.016 282.43C464.202 283.786 465.897 284.634 467.761 284.634C467.93 284.634 468.1 284.634 468.439 284.634L532.152 280.057L534.525 265.14L467.252 272.429C464.372 272.429 462.169 274.632 461.66 277.345Z" fill="white"/>
<path d="M531.813 282.26H590.444L593.663 262.597H535.033L531.813 282.26Z" fill="#8B41D2"/>
<path d="M532.152 279.887H591.291L593.663 264.97H534.525L532.152 279.887Z" fill="#B1E3F1"/>
<path d="M469.116 275.48L534.525 268.699H592.647" stroke="#AC64F2" stroke-width="0.75" stroke-miterlimit="10"/>
<path d="M469.116 279.548L533.339 273.276H581.293" stroke="#AC64F2" stroke-width="0.75" stroke-miterlimit="10"/>
<path d="M591.461 276.497L532.152 277.684L486.909 280.735" stroke="#AC64F2" stroke-width="0.75" stroke-miterlimit="10"/>
<path d="M323.896 372.442L792.769 333.115V318.028L323.896 362.61V372.442Z" fill="#EBF2FF"/>
<path d="M784.636 333.793C782.433 333.962 343.213 370.747 343.213 370.747L347.28 409.396L784.636 390.071C784.636 390.071 786.839 333.623 784.636 333.793Z" fill="#EBF2FF"/>
<path d="M784.636 333.792C782.433 333.962 343.213 370.746 343.213 370.746L343.891 376.849L785.822 345.828C785.483 338.708 785.314 333.792 784.636 333.792Z" fill="#B1E3F1"/>
<path d="M114.623 372.442L583.496 333.115V318.028L114.623 362.61V372.442Z" fill="white"/>
<path d="M575.363 333.793C573.16 333.962 133.94 370.746 133.94 370.746L138.007 409.395L576.379 399.225C576.379 399.225 577.565 333.623 575.363 333.793Z" fill="white"/>
<path d="M575.363 333.792C573.16 333.962 133.94 370.746 133.94 370.746L134.618 376.849L576.549 345.828C576.379 338.708 576.04 333.792 575.363 333.792Z" fill="#B1E3F1"/>
<path d="M576.379 399.225L784.636 390.071V333.792H575.363L576.379 399.225Z" fill="#B1E3F1"/>
<path d="M792.77 318.028H583.496V333.115H792.77V318.028Z" fill="#9DBCFE"/>
<path d="M138.007 657.054C138.007 657.054 146.48 663.496 146.48 657.054C146.48 650.613 146.48 409.056 146.48 409.056L138.007 409.395V657.054Z" fill="#EBF2FF"/>
<path d="M344.4 465.504L328.132 451.604C328.132 451.604 329.488 436.178 326.946 420.244" stroke="#1F296F" stroke-width="0.75" stroke-miterlimit="10"/>
<path d="M326.359 169.403C340.264 152.6 337.92 127.702 321.123 113.791C304.327 99.881 279.438 102.226 265.532 119.029C251.627 135.832 253.971 160.729 270.768 174.64C287.564 188.55 312.453 186.205 326.359 169.403Z" fill="#1F296F"/>
<path d="M286.616 161.906L284.583 222.931C285.939 233.271 292.378 242.086 301.867 246.493C310.34 250.392 319.998 243.951 319.321 234.627L315.593 174.111C315.593 174.111 286.108 157.329 286.616 161.906Z" fill="#FF6089"/>
<path d="M295.936 186.486C298.817 199.199 307.459 207.166 317.965 212.591L317.287 202.25C309.323 199.03 300.511 195.131 295.936 186.486Z" fill="#1F296F"/>
<path d="M350.161 141.564C348.128 112.069 303.731 112.408 290.853 125.291C271.874 144.277 278.822 174.619 302.884 196.826C326.946 219.032 347.45 199.029 349.653 181.061C350.839 171.907 349.144 170.212 348.805 163.94C348.466 153.769 350.839 152.413 350.161 141.564Z" fill="#FF6089"/>
<path d="M325.082 159.872C323.726 159.872 322.54 161.059 322.54 162.415C322.54 163.771 323.726 164.957 325.082 164.957C326.438 164.957 327.624 163.771 327.624 162.415C327.454 160.889 326.438 159.872 325.082 159.872Z" fill="#1F296F"/>
<path d="M345.755 157.329C344.4 157.329 343.213 158.516 343.213 159.872C343.213 161.228 344.4 162.415 345.755 162.415C347.111 162.415 348.297 161.228 348.297 159.872C348.297 158.516 347.28 157.329 345.755 157.329Z" fill="#1F296F"/>
<path d="M299.325 142.582C299.325 142.582 287.464 150.04 292.208 163.262C293.225 165.974 295.767 171.399 296.783 173.263C298.139 175.467 301.698 174.281 301.359 171.568C300.342 163.601 302.545 154.108 302.545 154.108L299.325 142.582Z" fill="#6F0087"/>
<path d="M284.583 106.306L268.485 126.647L263.232 139.361C263.232 139.361 279.499 168.348 283.736 169.365C287.972 170.382 294.072 158.685 294.072 158.685C291.869 168.178 295.089 189.537 295.089 189.537L306.103 186.486C302.037 171.06 302.545 154.109 302.545 154.109C303.223 153.77 304.07 153.431 304.748 153.091C303.731 147.159 302.884 141.056 304.917 135.123C301.359 142.412 302.206 150.379 302.206 158.516C302.206 150.379 301.359 142.243 304.917 135.123C302.884 141.056 303.731 147.159 304.748 153.091C312.712 149.532 320.676 147.498 327.793 146.48C327.454 143.09 326.946 139.869 325.59 136.988C327.793 139.869 329.318 142.751 329.827 146.141C334.232 145.463 338.469 145.124 341.858 145.124C341.688 137.666 338.469 131.563 334.571 125.291C339.485 131.055 343.552 137.835 345.755 145.124C350.669 145.124 353.55 145.463 353.55 145.463C353.55 145.463 357.278 130.716 343.552 113.764C327.963 94.1009 284.583 106.306 284.583 106.306Z" fill="#1F296F"/>
<path d="M281.194 153.43C271.027 154.617 273.738 173.602 288.311 171.568L293.225 166.313C293.225 166.313 291.361 152.074 281.194 153.43Z" fill="#FF6089"/>
<path d="M329.149 149.532C326.607 148.854 322.032 149.023 318.134 152.583C312.881 157.499 325.421 152.922 328.302 154.109C331.521 155.465 332.368 150.21 329.149 149.532Z" fill="#1F296F"/>
<path d="M347.619 148.514C346.602 147.667 343.552 147.158 342.027 148.684C340.672 150.04 341.18 154.108 343.213 152.413C345.247 150.888 351.178 151.566 347.619 148.514Z" fill="#1F296F"/>
<path d="M318.473 182.587C322.31 182.587 325.421 179.475 325.421 175.637C325.421 171.798 322.31 168.687 318.473 168.687C314.636 168.687 311.526 171.798 311.526 175.637C311.526 179.475 314.636 182.587 318.473 182.587Z" fill="#F24678"/>
<path d="M330.504 183.265C330.504 183.265 329.149 188.52 333.385 190.215C337.791 191.91 339.994 188.689 339.994 188.689C338.13 183.265 330.504 183.265 330.504 183.265Z" fill="#F24678"/>
<path d="M345.247 179.705C345.247 179.705 339.147 183.265 331.521 179.705C331.521 179.705 327.115 190.045 335.419 190.554C342.197 190.893 343.044 181.231 343.044 181.231" stroke="#1F296F" stroke-width="0.75" stroke-miterlimit="10" stroke-linecap="round" stroke-linejoin="round"/>
<path d="M340.333 159.872V155.126C340.163 156.651 340.163 158.346 340.333 159.872Z" fill="#FF6089" stroke="#1F296F" stroke-width="0.75" stroke-miterlimit="10" stroke-linecap="round" stroke-linejoin="round"/>
<path d="M324.065 152.413C318.134 152.413 313.22 157.329 313.22 163.262C313.22 169.195 318.134 174.111 324.065 174.111C329.996 174.111 334.91 169.195 334.91 163.262C334.91 157.329 329.996 152.413 324.065 152.413Z" stroke="#1F296F" stroke-width="0.75" stroke-miterlimit="10" stroke-linecap="round" stroke-linejoin="round"/>
<path d="M349.822 150.21C345.077 150.21 341.18 155.126 341.18 161.059C341.18 166.992 345.077 171.907 349.822 171.907C354.567 171.907 358.464 166.992 358.464 161.059C358.464 154.956 354.567 150.21 349.822 150.21Z" stroke="#1F296F" stroke-width="0.75" stroke-miterlimit="10" stroke-linecap="round" stroke-linejoin="round"/>
<path d="M333.724 158.516C333.724 158.516 335.419 157.499 337.791 157.499" stroke="#1F296F" stroke-width="0.75" stroke-miterlimit="10" stroke-linecap="round" stroke-linejoin="round"/>
<path d="M358.803 146.141C358.972 136.479 355.753 126.647 349.653 119.019C343.552 111.391 334.91 106.814 325.421 104.611" stroke="#1F296F" stroke-width="0.75" stroke-miterlimit="10" stroke-linecap="round" stroke-linejoin="round"/>
<path d="M343.891 167.839C342.027 165.466 340.841 162.754 340.502 159.872V174.281C340.502 174.281 345.925 172.077 345.416 170.212C345.077 169.534 344.569 168.687 343.891 167.839Z" fill="#FF6089"/>
<path d="M340.333 174.281C340.333 174.281 345.755 172.077 345.247 170.212C345.077 169.704 344.569 168.856 343.722 167.839C341.858 165.466 340.672 162.754 340.333 159.872" stroke="#1F296F" stroke-width="0.75" stroke-miterlimit="10" stroke-linecap="round" stroke-linejoin="round"/>
<path d="M380.662 617.558L365.073 612.133C359.989 626.203 362.023 640.103 369.817 650.952C374.392 658.58 384.729 653.834 394.049 654.173C392.863 652.647 391.677 650.952 390.321 649.257L380.662 617.558Z" fill="white"/>
<path d="M390.321 649.257L380.662 617.558" stroke="#9DBCFE" stroke-width="0.75" stroke-miterlimit="10"/>
<path d="M394.049 654.173C384.56 653.833 374.392 658.749 369.817 650.952C362.022 639.933 359.989 626.203 365.073 612.133L359.82 610.269L353.211 628.915L361.514 660.444C363.886 669.429 372.02 675.701 381.171 675.701H409.13C410.655 675.701 411.333 673.836 410.316 672.819C406.927 669.429 400.996 663.326 394.049 654.173Z" fill="#1F296F"/>
<path d="M658.394 133.258L515.207 120.036C510.801 119.697 506.735 124.613 506.735 130.546V259.376C506.735 265.309 510.801 270.395 515.207 270.225L658.394 262.936C662.8 262.766 666.189 259.207 666.189 254.46V141.904C666.189 137.327 662.969 133.597 658.394 133.258Z" fill="white"/>
<path d="M666.528 132.919L521.646 119.697C517.071 119.358 513.004 124.274 513.004 130.207V259.885C513.004 265.818 517.071 271.073 521.646 270.734L666.528 263.444C671.103 263.275 674.323 259.715 674.323 254.969V141.564C674.323 136.988 671.103 133.258 666.528 132.919Z" fill="#9DBCFE"/>
<path d="M508.768 681.634C530.119 675.701 528.086 655.868 528.086 655.868C503.854 659.427 508.768 681.634 508.768 681.634Z" fill="#1F296F"/>
<path d="M219.005 310.739L188.504 315.146" stroke="#1F296F" stroke-width="0.75" stroke-miterlimit="10"/>
<path d="M138.007 717.231H145.294L154.783 409.056L138.007 409.395V717.231Z" fill="white"/>
<path d="M406.25 455.503L416.417 445.163" stroke="#1F296F" stroke-width="0.75" stroke-miterlimit="10"/>
<path d="M195.621 274.463C195.621 274.463 216.802 272.598 231.206 293.618" stroke="white" stroke-width="0.75" stroke-miterlimit="10"/>
<path d="M264.249 138.344C275.479 138.344 284.583 129.237 284.583 118.002C284.583 106.768 275.479 97.6606 264.249 97.6606C253.019 97.6606 243.915 106.768 243.915 118.002C243.915 129.237 253.019 138.344 264.249 138.344Z" fill="#1F296F"/>
<path d="M392.016 506.527C392.016 506.527 377.782 498.559 377.951 515.172C378.12 529.75 393.879 539.243 400.149 540.938C411.502 544.328 418.958 535.852 415.569 529.241" stroke="#1F296F" stroke-width="0.75" stroke-miterlimit="10"/>
<path d="M439.293 414.142C432.176 418.21 430.82 429.568 436.412 439.23C442.004 448.892 452.341 453.469 459.458 449.231C466.574 445.163 467.93 433.805 462.338 424.143C456.746 414.481 446.41 409.904 439.293 414.142Z" stroke="#1F296F" stroke-width="0.75" stroke-miterlimit="10"/>
<path d="M213.582 89.8628L161.052 85.1165C158.172 84.7774 155.63 86.9811 155.63 90.0323V133.258C155.63 136.14 158.002 138.683 161.052 138.683H207.482C208.668 138.683 209.685 139.191 210.532 140.039L216.463 146.141C216.972 146.65 221.208 146.819 221.208 145.972L217.988 95.1177C217.819 92.4055 215.955 90.0323 213.582 89.8628Z" fill="#1F296F"/>
<path d="M216.972 89.8628L164.441 85.1165C161.561 84.7774 159.019 86.9811 159.019 90.0323V133.258C159.019 136.14 161.391 138.683 164.441 138.683H210.871C212.057 138.683 213.074 139.191 213.921 140.039L219.852 146.141C220.361 146.65 221.377 146.311 221.377 145.463V95.2872C221.377 92.4055 219.344 90.0323 216.972 89.8628Z" fill="#FF9FD3"/>
<path d="M170.203 104.611L210.702 106.984V99.3556L170.203 96.4739V104.611Z" fill="white"/>
<path d="M170.203 116.307L210.702 117.833" stroke="#1F296F" stroke-width="0.75" stroke-miterlimit="10"/>
<path d="M170.203 123.596L210.702 124.613" stroke="#1F296F" stroke-width="0.75" stroke-miterlimit="10"/>
<path d="M598.069 267.004L616.709 265.648L598.069 196.995V267.004Z" fill="#789FD6"/>
<path d="M621.623 196.148C621.284 193.944 619.42 192.249 617.217 192.249H602.645C600.103 192.249 598.069 194.453 598.069 196.995L603.322 301.585C603.492 305.484 600.442 308.705 596.544 308.705H589.088C585.53 308.705 581.802 309.213 578.243 310.061L521.646 323.961L583.327 318.197C583.496 318.197 583.666 318.197 583.835 318.197H635.518C638.229 318.197 640.432 315.655 639.924 312.942L621.623 196.148Z" fill="#9DBCFE"/>
<path d="M598.069 196.995C597.9 194.453 599.933 192.249 602.644 192.249H617.217C619.42 192.249 621.284 193.944 621.623 196.148L639.754 312.942C640.263 315.655 638.06 318.197 635.349 318.197" stroke="#789FD6" stroke-width="0.75" stroke-miterlimit="10" stroke-linecap="round" stroke-linejoin="round"/>
<path d="M558.248 390.24L567.737 717.231H577.057L576.21 391.766L558.248 390.24Z" fill="white"/>
<path d="M318.473 269.038L299.495 275.141L288.65 278.531C287.633 278.87 287.125 279.718 287.125 280.735C287.125 280.904 287.125 281.243 287.294 281.413C287.633 282.599 288.989 283.108 290.005 282.769L298.986 279.887L327.624 270.733C327.115 270.394 326.438 270.055 325.76 270.055L318.473 269.038Z" fill="#1F296F"/>
<path d="M329.149 272.598C328.302 271.242 327.116 270.394 325.59 270.225L305.934 266.835C303.053 266.326 300.173 268.36 299.834 271.412L296.784 298.873C296.784 299.212 296.614 299.72 296.445 300.059C290.853 315.316 298.986 327.69 298.986 327.69C315.932 323.961 321.524 304.467 323.049 296.33C323.388 294.296 325.082 292.601 327.116 292.262L330.166 291.753C332.369 291.414 333.894 289.719 334.402 287.515L334.91 284.634C335.08 283.447 334.91 282.091 334.233 281.074L329.149 272.598Z" fill="#FF6089"/>
<path d="M329.488 263.444L325.59 261.919C322.879 260.902 319.829 260.902 317.118 261.919L304.578 266.665L315.084 271.92C315.084 271.92 318.643 268.699 322.879 267.682C324.404 267.343 327.963 268.699 328.471 268.699C329.318 268.699 329.996 268.191 330.674 267.513C331.521 266.157 331.013 264.122 329.488 263.444Z" fill="#FF6089"/>
<path d="M318.473 269.038L325.59 270.225C326.268 270.394 326.946 270.564 327.454 270.903L333.724 268.869C332.538 267.513 331.86 265.987 332.03 264.461L318.473 269.038Z" fill="#1F296F"/>
<path d="M333.894 264.123C333.724 264.123 333.385 264.123 333.216 264.292L332.03 264.631C331.86 266.157 332.538 267.682 333.724 269.038L335.08 268.699C335.419 268.53 335.758 268.36 336.096 268.021L339.316 264.462C339.485 264.292 339.316 264.123 339.147 264.123H333.894Z" fill="#EBF2FF"/>
<path d="M267.129 423.295C267.129 423.295 251.37 439.569 224.766 428.72" stroke="#1F296F" stroke-width="0.75" stroke-miterlimit="10"/>
<path d="M668.561 270.395C665.85 263.784 666.867 282.939 676.017 284.973L683.473 280.057C683.473 280.057 671.272 277.006 668.561 270.395Z" fill="#14C664"/>
<path d="M676.525 265.309C676.864 259.546 668.731 272.937 676.525 281.413L684.998 279.04C685.167 279.04 676.356 271.073 676.525 265.309Z" fill="#14C664"/>
<path d="M682.626 278.192L685.845 282.769V257.003C675 264.97 682.626 278.192 682.626 278.192Z" fill="#14C664"/>
<path d="M703.468 270.395C700.757 277.006 688.557 280.057 688.557 280.057L696.012 284.973C704.993 282.939 706.18 263.784 703.468 270.395Z" fill="#14C664"/>
<path d="M695.335 265.309C695.673 271.073 686.862 279.04 686.862 279.04L695.335 281.413C703.129 272.937 694.996 259.546 695.335 265.309Z" fill="#14C664"/>
<path d="M686.015 257.003V282.769L689.234 278.192C689.234 278.192 697.029 264.97 686.015 257.003Z" fill="#14C664"/>
<path d="M703.638 278.701H666.528C663.139 278.701 660.597 281.752 661.275 284.973L666.528 313.79C667.036 316.333 669.239 318.197 671.781 318.197H697.707C700.249 318.197 702.452 316.333 702.96 313.959L708.721 285.142C709.569 281.752 707.027 278.701 703.638 278.701Z" fill="white"/>
<path d="M359.82 610.268C371.681 629.593 388.288 620.1 388.288 620.1L378.121 597.894L359.82 610.268Z" fill="#0C50AA"/>
<path d="M308.815 247.51C310.17 249.883 310.17 252.935 308.645 255.308C307.629 257.172 306.781 259.715 307.29 263.275" stroke="#1F296F" stroke-width="0.75" stroke-miterlimit="10" stroke-linecap="round" stroke-linejoin="round"/>
<path d="M486.231 24.4308L424.381 18.8369C422.009 18.6674 419.806 20.532 419.806 23.0747V149.193C419.806 151.566 421.839 153.6 424.211 153.6L486.061 154.617C488.434 154.617 490.298 152.922 490.298 150.549V28.6686C490.298 26.465 488.434 24.6003 486.231 24.4308Z" fill="#1F296F"/>
<path d="M433.192 50.7052L476.403 54.265V46.2979L433.192 42.5686V50.7052Z" fill="#FF6089"/>
<path d="M476.403 66.809L433.87 63.7578" stroke="white" stroke-width="0.75" stroke-miterlimit="10"/>
<path d="M476.403 73.9288L433.87 71.2166" stroke="white" stroke-width="0.75" stroke-miterlimit="10"/>
<path d="M476.403 81.7263L433.87 79.1836" stroke="white" stroke-width="0.75" stroke-miterlimit="10"/>
<path d="M468.777 94.2703C467.252 94.2703 466.066 95.2873 466.066 96.813V98.6776C466.066 100.203 467.252 101.39 468.777 101.39C470.302 101.39 471.489 100.373 471.489 98.8471V96.9825C471.489 95.6264 470.302 94.4398 468.777 94.2703Z" fill="#FF6089"/>
<path d="M455.391 93.5923C453.696 93.5923 452.51 94.6094 452.51 96.135V98.1691C452.51 99.6948 453.696 100.881 455.221 100.881H455.391C456.916 100.881 458.102 99.8643 458.102 98.3387V96.3045C458.102 94.9484 456.916 93.7618 455.391 93.5923Z" fill="white"/>
<path d="M442.004 92.9141H441.665C440.14 92.9141 438.954 93.9311 438.954 95.4568V97.4909C438.954 99.0165 440.14 100.203 441.665 100.203H442.004C443.529 100.203 444.715 99.1861 444.715 97.6604V95.4568C444.546 94.2702 443.36 93.0836 442.004 92.9141Z" fill="#FF6089"/>
<path d="M468.608 109.357C467.083 109.357 465.897 110.374 465.897 111.9V113.764C465.897 115.29 467.083 116.476 468.608 116.476C470.133 116.476 471.319 115.459 471.319 113.934V112.069C471.488 110.713 470.133 109.526 468.608 109.357Z" fill="white"/>
<path d="M455.391 108.848C453.696 108.848 452.51 109.865 452.51 111.391V113.425C452.51 114.951 453.696 116.137 455.221 116.137H455.391C456.916 116.137 458.102 115.12 458.102 113.595V111.561C458.102 110.204 456.916 109.018 455.391 108.848Z" fill="#FF6089"/>
<path d="M441.834 108.34H441.495C439.97 108.34 438.784 109.357 438.784 110.883V112.917C438.784 114.442 439.97 115.629 441.495 115.629H441.834C443.359 115.629 444.546 114.612 444.546 113.086V110.883C444.546 109.696 443.359 108.34 441.834 108.34Z" fill="white"/>
<path d="M204.263 314.977H178.337C176.134 314.977 174.439 316.672 174.439 318.875V356.846L208.16 353.626V318.875C208.16 316.672 206.296 314.977 204.263 314.977Z" fill="white"/>
<path d="M201.213 323.961H212.396C216.294 323.961 219.344 327.52 218.666 331.419L216.633 343.285C215.955 347.015 212.566 349.896 208.838 349.896H201.382" stroke="white" stroke-width="4" stroke-miterlimit="10"/>
<path d="M575.024 717.231H582.31L590.444 371.594L576.379 399.225L575.024 717.231Z" fill="#B1E3F1"/>
<path d="M145.293 717.231H152.241L164.95 408.717L154.783 409.056L145.293 717.231Z" fill="#B1E3F1"/>
</svg>
