<svg width="80" height="80" viewBox="0 0 80 80" fill="none" xmlns="http://www.w3.org/2000/svg">
<path d="M54.2575 41.4774C53.8567 41.9556 53.0867 41.5846 53.2064 40.9717C53.4227 39.8659 53.5049 38.7168 53.4371 37.5401C53.0838 31.4406 48.7884 26.512 43.1852 25.1092C42.5392 24.9469 42.5825 24.0064 43.2428 23.9209C43.2544 23.9194 43.2659 23.918 43.2775 23.9165C43.2991 23.9137 43.3193 23.9108 43.3409 23.9093C43.6884 23.8644 44.0402 23.8325 44.3964 23.8122C51.7558 23.3804 58.1752 27.909 59.93 34.3113C59.9819 34.5012 59.9343 34.7055 59.8074 34.8562L54.2561 41.4774H54.2575Z" fill="#F9F6FE"/>
<path d="M64.201 50.5578L62.6394 49.1362C59.1082 55.8385 51.4416 60.6019 42.4297 60.8555C29.813 61.2134 19.339 52.604 19.0319 41.6267C18.9988 40.4239 19.0867 39.2428 19.2915 38.0922C19.6591 36.0025 20.4133 33.9911 21.4745 32.1593C23.7657 28.2017 27.4224 25.1556 31.5592 23.3036C33.6254 22.3775 35.6715 21.7182 37.9252 21.5023C40.6013 21.2501 43.2472 21.4095 45.9234 21.4095H62.7951V14.3695H53.1156C47.2644 14.3695 41.4146 14.2536 35.5648 14.4898C33.8388 14.5594 32.1619 14.9419 30.4878 15.3622C25.992 16.5172 21.6893 18.5373 18.0284 21.4139C17.6116 21.7414 17.2007 22.0805 16.8013 22.4312C11.3278 27.2264 8.04894 33.7041 8.24649 40.7456C8.39212 45.9147 10.4771 50.8216 13.8093 54.7285C16.5461 57.9355 20.0268 60.4512 23.819 62.2467C33.2246 66.7014 44.5118 66.9434 53.8121 62.0902C56.879 60.4903 59.6042 58.1499 61.7468 55.4299C62.2948 54.7343 62.7418 53.9198 63.2118 53.1634C63.4483 52.7837 64.7201 51.0317 64.1995 50.5578H64.201Z" fill="#F9F6FE"/>
<path d="M71.7623 34.3606L54.6267 52.0534L51.0479 55.7487L47.2154 52.178L41.2791 46.6451L44.7656 42.8657L50.7927 48.4841L67.9312 30.7899L71.7623 34.3606Z" fill="#FF8B20"/>
</svg>
