<svg width="369" height="93" viewBox="0 0 369 93" fill="none" xmlns="http://www.w3.org/2000/svg">
<g clip-path="url(#clip0_2162_3149)">
<path d="M83.2457 49.178C82.5186 50.0447 81.1286 49.3718 81.3425 48.263C81.7327 46.2605 81.8824 44.1774 81.7595 42.0457C81.1179 30.9893 73.3499 22.0591 63.2135 19.5184C62.0427 19.2277 62.1229 17.5213 63.3204 17.3652C63.3418 17.3652 63.3632 17.3599 63.3846 17.3545C63.422 17.3545 63.4594 17.3437 63.4968 17.3437C64.1277 17.263 64.7639 17.2038 65.4054 17.1661C78.7175 16.3856 90.3294 24.5891 93.5051 36.1892C93.6013 36.5337 93.5104 36.9051 93.2859 37.1796L83.2457 49.178Z" fill="#5E30A0"/>
<path d="M101.23 65.6336L98.4075 63.0552C92.0188 75.2044 78.1508 83.8331 61.8502 84.2961C39.0273 84.942 20.0804 69.3424 19.5244 49.4527C19.4656 47.2726 19.6259 45.1302 19.9948 43.0471C20.6631 39.2575 22.0264 35.6133 23.9403 32.2975C28.0836 25.1275 34.6969 19.6046 42.1816 16.2511C45.9186 14.5716 49.6181 13.3766 53.6973 12.9891C58.5409 12.5315 63.3258 12.8222 68.1641 12.8222H98.6855V0.0540139H81.1767C70.5913 0.0540139 60.0111 -0.155918 49.431 0.269329C46.3088 0.393135 43.2775 1.08753 40.2462 1.8519C32.1147 3.94584 24.3306 7.60619 17.712 12.8168C16.9582 13.4089 16.2151 14.0226 15.4933 14.6631C5.58683 23.3511 -0.342104 35.0912 0.0160918 47.8486C0.278056 57.2148 4.05247 66.1073 10.0776 73.1858C15.0282 78.9993 21.326 83.5586 28.1852 86.8099C45.1968 94.8842 65.6193 95.3202 82.4384 86.5246C87.9878 83.6232 92.917 79.3815 96.793 74.4562C97.7874 73.1966 98.5893 71.7217 99.4447 70.349C99.8724 69.66 102.171 66.4841 101.23 65.6282V65.6336Z" fill="#5E30A0"/>
<path d="M114.911 36.2805L83.9139 68.3463L77.4397 75.0372L70.5057 68.567L59.7705 58.5441L66.079 51.6917L76.9799 61.8707L107.983 29.8103L114.911 36.2805Z" fill="#FF8B20"/>
<path d="M153.34 48.4997C151.918 47.6276 150.346 46.9279 148.624 46.4111C146.903 45.8944 145.187 45.4368 143.465 45.0385C141.744 44.6401 140.177 44.2418 138.75 43.8435C137.328 43.4451 136.178 42.9176 135.312 42.2609C134.441 41.6042 134.008 40.7376 134.008 39.6664C134.008 38.7513 134.265 37.9438 134.778 37.2494C135.291 36.5551 136.141 35.9845 137.328 35.5485C138.515 35.1124 140.033 34.8917 141.894 34.8917C143.754 34.8917 145.647 35.1609 147.587 35.6992C149.523 36.2375 151.458 37.061 153.399 38.1753L156.36 30.8331C154.425 29.6004 152.19 28.6745 149.662 28.0555C147.133 27.4365 144.561 27.1296 141.952 27.1296C138.039 27.1296 134.788 27.7164 132.201 28.8898C129.613 30.0633 127.673 31.6351 126.39 33.6052C125.106 35.5754 124.465 37.7554 124.465 40.1401C124.465 42.3686 124.909 44.1987 125.796 45.6306C126.684 47.0624 127.844 48.2198 129.266 49.0918C130.688 49.9692 132.26 50.6851 133.981 51.2396C135.703 51.7994 137.419 52.2623 139.14 52.6445C140.862 53.0213 142.428 53.4196 143.856 53.8395C145.278 54.2593 146.422 54.7923 147.293 55.449C148.159 56.1057 148.598 56.9939 148.598 58.1027C148.598 58.9801 148.32 59.7553 147.769 60.4281C147.213 61.1064 146.358 61.6339 145.192 62.0107C144.027 62.3875 142.492 62.5759 140.6 62.5759C138.108 62.5759 135.649 62.1668 133.222 61.354C130.789 60.5412 128.688 59.4969 126.908 58.2211L123.647 65.5042C125.502 66.936 127.956 68.0987 130.998 68.9977C134.04 69.8912 137.221 70.3434 140.541 70.3434C144.492 70.3434 147.764 69.7459 150.351 68.5509C152.939 67.3559 154.885 65.7841 156.189 63.8355C157.494 61.8869 158.146 59.7391 158.146 57.3868C158.146 55.2014 157.702 53.3873 156.815 51.9555C155.927 50.5236 154.767 49.3717 153.345 48.4943L153.34 48.4997Z" fill="#5E30A0"/>
<path d="M175.152 45.7544C176.419 45.0385 177.841 44.6779 179.418 44.6779C180.878 44.6779 182.236 45.0385 183.482 45.7544C184.727 46.4704 185.764 47.5846 186.593 49.0972L193.768 45.2161C192.581 42.5893 190.747 40.5707 188.256 39.1604C185.764 37.7501 182.84 37.0396 179.483 37.0396C176.125 37.0396 172.982 37.7447 170.292 39.1604C167.603 40.5707 165.502 42.5247 163.979 45.0116C162.455 47.4985 161.696 50.3514 161.696 53.5758C161.696 56.8001 162.455 59.6046 163.979 62.113C165.497 64.6214 167.603 66.5808 170.292 67.9911C172.982 69.4014 176.045 70.112 179.483 70.112C182.92 70.112 185.764 69.4068 188.256 67.9911C190.747 66.5808 192.581 64.5784 193.768 61.9946L186.593 58.0543C185.764 59.6046 184.727 60.7296 183.482 61.4294C182.236 62.1238 180.883 62.4737 179.418 62.4737C177.836 62.4737 176.414 62.113 175.152 61.3971C173.885 60.6812 172.891 59.6638 172.158 58.3504C171.426 57.0369 171.062 55.4436 171.062 53.5758C171.062 51.7079 171.426 50.1146 172.158 48.8011C172.891 47.4877 173.885 46.4757 175.152 45.7598V45.7544Z" fill="#5E30A0"/>
<path d="M225.038 38.5629C223.043 37.5455 220.777 37.0395 218.248 37.0395C215.521 37.0395 213.089 37.6155 210.956 38.7728C209.881 39.3542 208.935 40.0593 208.111 40.8937V25.3425H198.863V69.6329H208.111V53.7534C208.111 51.7617 208.438 50.1307 209.09 48.8603C209.742 47.5846 210.651 46.6426 211.816 46.0235C212.982 45.4099 214.297 45.0977 215.757 45.0977C217.809 45.0977 219.403 45.7167 220.531 46.9494C221.659 48.1821 222.22 50.093 222.22 52.6822V69.6329H231.469V51.2503C231.469 47.9883 230.897 45.313 229.748 43.2245C228.603 41.1359 227.032 39.5856 225.032 38.5683L225.038 38.5629Z" fill="#5E30A0"/>
<path d="M263.156 39.0366C260.649 37.7016 257.831 37.0396 254.709 37.0396C251.587 37.0396 248.561 37.7447 245.995 39.1604C243.423 40.5707 241.402 42.5247 239.916 45.0116C238.435 47.4985 237.692 50.3514 237.692 53.5758C237.692 56.8001 238.441 59.5938 239.943 62.0807C241.445 64.5676 243.568 66.527 246.316 67.9588C249.064 69.3907 252.255 70.1066 255.891 70.1066C258.778 70.1066 261.322 69.6598 263.536 68.7662C265.749 67.8727 267.588 66.5862 269.048 64.9175L264.129 59.5454C263.06 60.5789 261.884 61.354 260.601 61.8708C259.318 62.3875 257.826 62.6459 256.126 62.6459C254.228 62.6459 252.576 62.296 251.175 61.6016C249.775 60.9072 248.684 59.8899 247.914 58.5603C247.497 57.839 247.203 57.0477 247.011 56.2026H271.122C271.159 55.8043 271.202 55.379 271.24 54.9215C271.277 54.4639 271.298 54.0548 271.298 53.6996C271.298 50.2384 270.566 47.2616 269.106 44.7747C267.642 42.2879 265.658 40.3769 263.151 39.042L263.156 39.0366ZM250.587 45.1246C251.79 44.4302 253.185 44.0804 254.768 44.0804C256.35 44.0804 257.73 44.4302 258.917 45.1246C260.103 45.819 261.028 46.7879 261.702 48.0206C262.146 48.8388 262.429 49.7593 262.579 50.7659H246.904C247.059 49.7701 247.337 48.855 247.77 48.0475C248.443 46.7933 249.379 45.819 250.587 45.1246Z" fill="#5E30A0"/>
<path d="M300.708 40.8775C299.97 40.0647 299.147 39.3811 298.216 38.832C296.201 37.637 293.848 37.0395 291.159 37.0395C288.155 37.0395 285.45 37.7178 283.038 39.0689C280.627 40.42 278.719 42.3309 277.318 44.8016C275.912 47.267 275.212 50.1953 275.212 53.5757C275.212 56.9562 275.912 59.8253 277.318 62.2906C278.719 64.756 280.627 66.6777 283.038 68.0503C285.45 69.4229 288.155 70.1119 291.159 70.1119C293.966 70.1119 296.367 69.5144 298.361 68.3194C299.409 67.695 300.323 66.8876 301.119 65.9133V69.6329H309.951V25.3372H300.702V40.8721L300.708 40.8775ZM299.788 58.3181C299.056 59.653 298.077 60.6758 296.853 61.3917C295.629 62.1076 294.265 62.4683 292.763 62.4683C291.261 62.4683 289.839 62.1076 288.615 61.3917C287.39 60.6758 286.412 59.653 285.68 58.3181C284.947 56.9831 284.584 55.4059 284.584 53.5704C284.584 51.7348 284.947 50.1092 285.68 48.7957C286.412 47.4823 287.39 46.4703 288.615 45.7544C289.839 45.0385 291.224 44.6778 292.763 44.6778C294.303 44.6778 295.629 45.0385 296.853 45.7544C298.077 46.4703 299.056 47.4877 299.788 48.7957C300.521 50.1092 300.884 51.7025 300.884 53.5704C300.884 55.4382 300.521 56.9831 299.788 58.3181Z" fill="#5E30A0"/>
<path d="M327.268 24.0561C326.198 23.1194 324.819 22.6511 323.119 22.6511C321.419 22.6511 320.034 23.1517 318.97 24.1422C317.901 25.138 317.372 26.3707 317.372 27.8402C317.372 29.3097 317.906 30.5478 318.97 31.5436C320.04 32.5395 321.419 33.0347 323.119 33.0347C324.819 33.0347 326.252 32.5287 327.3 31.5113C328.348 30.494 328.872 29.2129 328.872 27.6626C328.872 26.1931 328.337 24.9873 327.273 24.0507L327.268 24.0561Z" fill="#5E30A0"/>
<path d="M327.744 37.5186H318.495V69.6328H327.744V37.5186Z" fill="#5E30A0"/>
<path d="M366.749 44.9793C365.247 42.5139 363.173 40.5707 360.526 39.1604C357.88 37.7501 354.875 37.0396 351.518 37.0396C348.16 37.0396 345.108 37.7447 342.477 39.1604C339.847 40.5707 337.773 42.5247 336.255 45.0116C334.731 47.4985 333.972 50.3514 333.972 53.5758C333.972 56.8001 334.731 59.5938 336.255 62.0807C337.773 64.5676 339.852 66.527 342.477 67.9588C345.108 69.3907 348.118 70.1066 351.518 70.1066C354.918 70.1066 357.88 69.3907 360.526 67.9588C363.173 66.527 365.247 64.5676 366.749 62.0807C368.252 59.5938 369 56.757 369 53.5758C369 50.3945 368.246 47.45 366.749 44.9793ZM358.564 58.3181C357.853 59.653 356.885 60.6758 355.661 61.3917C354.437 62.1076 353.052 62.4683 351.513 62.4683C349.973 62.4683 348.588 62.1076 347.364 61.3917C346.14 60.6758 345.161 59.653 344.429 58.3181C343.696 56.9831 343.333 55.4059 343.333 53.5704C343.333 51.7348 343.696 50.1092 344.429 48.7958C345.161 47.4823 346.14 46.4704 347.364 45.7544C348.588 45.0385 349.973 44.6779 351.513 44.6779C353.052 44.6779 354.437 45.0385 355.661 45.7544C356.885 46.4704 357.853 47.4877 358.564 48.7958C359.275 50.1092 359.633 51.7025 359.633 53.5704C359.633 55.4382 359.275 56.9831 358.564 58.3181Z" fill="#5E30A0"/>
</g>
<defs>
<clipPath id="clip0_2162_3149">
<rect width="369" height="93" fill="white"/>
</clipPath>
</defs>
</svg>
