<svg width="727" height="595" viewBox="0 0 727 595" fill="none" xmlns="http://www.w3.org/2000/svg">
<path d="M31.0216 83.513L707.795 109.745C718.533 110.143 727.018 119.152 726.62 130.016L713.098 499.258C712.7 509.459 704.481 517.674 694.14 518.071L49.9792 539.136C39.241 539.534 30.3587 531.187 29.8284 520.456L10.6057 103.916C10.0754 92.5221 19.488 83.1155 31.0216 83.513Z" fill="#EBF2FF"/>
<mask id="mask0_2297_1431" style="mask-type:luminance" maskUnits="userSpaceOnUse" x="10" y="83" width="717" height="457">
<path d="M707.795 109.745L31.0217 83.513C19.6207 83.1155 10.2081 92.5221 10.7384 103.916L29.9612 520.456C30.4915 531.187 39.5063 539.401 50.1119 539.137L694.14 518.071C704.348 517.674 712.7 509.459 713.098 499.258L726.487 130.016C726.885 119.152 718.533 110.143 707.795 109.745Z" fill="white"/>
</mask>
<g mask="url(#mask0_2297_1431)">
<path d="M324.798 91.5947L319.496 281.316H207.208L202.966 82.1881" stroke="#9DBCFE" stroke-width="0.75" stroke-miterlimit="10"/>
<path d="M266.202 89.3424C266.732 92.5221 263.816 281.316 263.816 281.316" stroke="#9DBCFE" stroke-width="0.75" stroke-miterlimit="10"/>
<path d="M204.955 175.857H322.412" stroke="#9DBCFE" stroke-width="0.75" stroke-miterlimit="10"/>
</g>
<mask id="mask1_2297_1431" style="mask-type:luminance" maskUnits="userSpaceOnUse" x="10" y="83" width="717" height="457">
<path d="M707.795 109.745L31.0217 83.513C19.6207 83.1155 10.2081 92.5221 10.7384 103.916L29.9612 520.456C30.4915 531.187 39.5063 539.401 50.1119 539.137L694.14 518.071C704.348 517.674 712.7 509.459 713.098 499.258L726.487 130.016C726.885 119.152 718.533 110.143 707.795 109.745Z" fill="white"/>
</mask>
<g mask="url(#mask1_2297_1431)">
<path d="M787.47 91.5947L782.167 281.316H669.88L665.637 82.1881" stroke="#9DBCFE" stroke-width="0.75" stroke-miterlimit="10"/>
<path d="M729.006 89.3424C729.536 92.5221 726.62 281.316 726.62 281.316" stroke="#9DBCFE" stroke-width="0.75" stroke-miterlimit="10"/>
<path d="M667.626 175.857H785.083" stroke="#9DBCFE" stroke-width="0.75" stroke-miterlimit="10"/>
</g>
<mask id="mask2_2297_1431" style="mask-type:luminance" maskUnits="userSpaceOnUse" x="10" y="83" width="717" height="457">
<path d="M707.795 109.745L31.0217 83.513C19.6207 83.1155 10.2081 92.5221 10.7384 103.916L29.9612 520.456C30.4915 531.187 39.5063 539.401 50.1119 539.137L694.14 518.071C704.348 517.674 712.7 509.459 713.098 499.258L726.487 130.016C726.885 119.152 718.533 110.143 707.795 109.745Z" fill="white"/>
</mask>
<g mask="url(#mask2_2297_1431)">
<path d="M726.487 480.312L17.1018 486.672" stroke="#9DBCFE" stroke-width="0.75" stroke-miterlimit="10"/>
</g>
<mask id="mask3_2297_1431" style="mask-type:luminance" maskUnits="userSpaceOnUse" x="10" y="83" width="717" height="457">
<path d="M707.795 109.745L31.0217 83.513C19.6207 83.1155 10.2081 92.5221 10.7384 103.916L29.9612 520.456C30.4915 531.187 39.5063 539.401 50.1119 539.137L694.14 518.071C704.348 517.674 712.7 509.459 713.098 499.258L726.487 130.016C726.885 119.152 718.533 110.143 707.795 109.745Z" fill="white"/>
</mask>
<g mask="url(#mask3_2297_1431)">
<path d="M23.6756 134.223C5.60012 124.555 -1.21038 102.073 8.46389 84.0091C18.1382 65.945 40.6338 59.1388 58.7092 68.8069C76.7847 78.4751 83.5952 100.957 73.9209 119.021C64.2466 137.085 41.751 143.891 23.6756 134.223Z" stroke="#9DBCFE" stroke-width="0.75" stroke-miterlimit="10"/>
<path d="M59.3918 101.531H41.2296L23.8628 84.3079" stroke="#9DBCFE" stroke-width="0.75" stroke-miterlimit="10"/>
</g>
<mask id="mask4_2297_1431" style="mask-type:luminance" maskUnits="userSpaceOnUse" x="10" y="83" width="717" height="457">
<path d="M707.795 109.745L31.0217 83.513C19.6207 83.1155 10.2081 92.5221 10.7384 103.916L29.9612 520.456C30.4915 531.187 39.5063 539.401 50.1119 539.137L694.14 518.071C704.348 517.674 712.7 509.459 713.098 499.258L726.487 130.016C726.885 119.152 718.533 110.143 707.795 109.745Z" fill="white"/>
</mask>
<g mask="url(#mask4_2297_1431)">
<path d="M3.84459 355.112H194.879V362.133H3.84459V355.112Z" stroke="#9DBCFE" stroke-width="0.75" stroke-miterlimit="10"/>
</g>
<path d="M9.94284 0.0460356L286.088 26.2785C289.534 26.5435 292.318 30.3856 292.318 34.7577V221.83C292.318 226.202 289.534 229.911 286.088 230.309L9.94284 256.541C4.50745 257.071 3.05176e-05 252.964 3.05176e-05 247.532V9.18765C3.05176e-05 3.62319 4.50745 -0.483913 9.94284 0.0460356Z" fill="#9DBCFE"/>
<path d="M13.6549 0.443523L288.474 26.5435C291.921 26.8085 294.572 30.6506 294.572 34.8902V221.565C294.572 225.937 291.788 229.646 288.474 229.911L13.6549 256.011C8.21948 256.541 3.8446 252.434 3.8446 247.002V9.45265C3.8446 4.02068 8.21948 -0.0864259 13.6549 0.443523Z" fill="white"/>
<path d="M13.6548 0.443523L288.474 26.5435C291.921 26.8085 294.572 30.6506 294.572 34.8902V44.5618L3.71204 21.6415V9.45265C3.8446 4.02068 8.21945 -0.0864259 13.6548 0.443523Z" fill="#8B41D2"/>
<path d="M24.1279 9.98252C25.4536 10.115 26.5142 11.3074 26.5142 12.6323C26.5142 13.9571 25.4536 15.017 24.1279 14.8845C22.8022 14.7521 21.7416 13.5597 21.7416 12.2348C21.7416 10.9099 22.8022 9.85003 24.1279 9.98252Z" fill="white"/>
<path d="M36.1919 11.0425C37.5176 11.1749 38.5781 12.3673 38.5781 13.6922C38.5781 15.0171 37.5176 15.9445 36.1919 15.9445C34.8662 15.812 33.8055 14.6196 33.8055 13.2947C33.9381 11.9699 34.9987 10.91 36.1919 11.0425Z" fill="white"/>
<path d="M48.1233 12.1024C49.449 12.2349 50.377 13.4273 50.377 14.6197C50.377 15.8121 49.3165 16.872 48.1233 16.7395C46.7976 16.607 45.8696 15.4146 45.8696 14.2222C45.8696 13.0298 46.7976 11.9699 48.1233 12.1024Z" fill="white"/>
<path d="M168.1 67.6146L251.884 71.8542C253.608 71.9867 254.933 73.709 254.933 75.6963V125.511C254.933 127.631 253.608 129.221 251.884 129.221L168.1 129.354C166.111 129.354 164.52 127.499 164.52 125.379V71.4567C164.653 69.2044 166.244 67.4821 168.1 67.6146Z" fill="#8AEBFF"/>
<path d="M168.1 146.047L251.884 144.855C253.608 144.855 254.933 146.444 254.933 148.564V198.379C254.933 200.499 253.608 202.222 251.884 202.354L168.1 207.919C166.111 208.051 164.52 206.329 164.52 204.076V150.154C164.653 147.902 166.244 146.047 168.1 146.047Z" fill="#8B41D2"/>
<path d="M241.544 163.668L201.375 164.993V159.031L241.544 157.971V163.668Z" fill="#FFCA60"/>
<path d="M241.544 171.352L180.694 173.737" stroke="white" stroke-width="0.7135" stroke-miterlimit="10"/>
<path d="M241.544 177.711L180.694 180.361" stroke="white" stroke-width="0.7135" stroke-miterlimit="10"/>
<path d="M241.544 184.071L220.067 185.131" stroke="white" stroke-width="0.7135" stroke-miterlimit="10"/>
<path d="M67.346 62.4475L147.154 66.5547C149.142 66.6871 150.733 68.542 150.733 70.7942V204.871C150.733 207.124 149.142 209.111 147.154 209.243L67.346 214.543C65.0923 214.675 63.2363 212.821 63.2363 210.436V66.6871C63.2363 64.3024 65.0923 62.3151 67.346 62.4475Z" fill="#FF9FD3"/>
<path d="M137.343 86.5603L89.3527 84.8379V78.3461L137.343 80.2009V86.5603Z" fill="#8AEBFF"/>
<path d="M137.343 94.9069L77.6865 93.317" stroke="white" stroke-width="0.7135" stroke-miterlimit="10"/>
<path d="M137.343 101.796L77.6865 100.471" stroke="white" stroke-width="0.7135" stroke-miterlimit="10"/>
<path d="M137.343 182.349L77.6865 184.998" stroke="white" stroke-width="0.7135" stroke-miterlimit="10"/>
<path d="M137.343 189.238L77.6865 192.153" stroke="white" stroke-width="0.7135" stroke-miterlimit="10"/>
<path d="M137.343 141.012L100.091 141.41" stroke="white" stroke-width="0.7135" stroke-miterlimit="10"/>
<path d="M104.731 111.07L77.6866 110.805" stroke="white" stroke-width="0.7135" stroke-miterlimit="10"/>
<path d="M104.731 118.49L77.6866 118.225" stroke="white" stroke-width="0.7135" stroke-miterlimit="10"/>
<path d="M104.731 124.849H77.6866" stroke="white" stroke-width="0.7135" stroke-miterlimit="10"/>
<path d="M104.731 132.268H77.6866" stroke="white" stroke-width="0.7135" stroke-miterlimit="10"/>
<path d="M136.018 134.256L112.287 134.388V108.023L136.018 108.421V134.256Z" stroke="white" stroke-width="0.7135" stroke-miterlimit="10"/>
<path d="M104.731 153.731L77.6866 154.394" stroke="white" stroke-width="0.7135" stroke-miterlimit="10"/>
<path d="M104.731 161.151L77.6866 161.813" stroke="white" stroke-width="0.7135" stroke-miterlimit="10"/>
<path d="M104.731 167.51L77.6866 168.437" stroke="white" stroke-width="0.7135" stroke-miterlimit="10"/>
<path d="M104.731 174.929L77.6866 175.857" stroke="white" stroke-width="0.7135" stroke-miterlimit="10"/>
<path d="M136.018 175.857L112.287 176.784V150.419L136.018 150.022V175.857Z" stroke="white" stroke-width="0.7135" stroke-miterlimit="10"/>
<path d="M241.544 90.0049L201.375 88.6801V82.7181L241.544 84.308V90.0049Z" fill="#8B41D2"/>
<path d="M241.544 97.8216L180.694 96.0992" stroke="white" stroke-width="0.7135" stroke-miterlimit="10"/>
<path d="M241.544 104.049L180.694 102.724" stroke="white" stroke-width="0.7135" stroke-miterlimit="10"/>
<path d="M241.544 110.408L220.067 110.01" stroke="white" stroke-width="0.7135" stroke-miterlimit="10"/>
<path d="M397.447 432.087L374.512 448.515L365.232 371.275L406.197 369.685L397.447 432.087Z" fill="#FF6089"/>
<path d="M360.725 460.969L332.752 433.677L331.029 410.889L365.232 388.101L360.725 460.969Z" fill="#FF6089"/>
<path d="M346.407 557.95C346.407 558.48 345.479 570.271 350.914 569.079C356.482 567.886 361.388 558.48 362.316 551.458C362.581 553.71 362.978 555.83 363.509 556.89C364.702 559.804 363.111 567.886 362.448 569.741C361.785 571.596 363.509 583.387 363.509 583.387L359.532 583.785L359.797 575.305C358.604 576.763 360.194 588.157 359.797 590.806C359.399 593.456 339.778 594.781 335.139 593.854C330.631 593.059 333.017 588.554 338.851 578.618C342.297 572.788 344.816 564.044 346.407 557.95Z" fill="#1F296F"/>
<path d="M360.725 460.969L361.255 542.316C361.255 542.316 361.653 547.218 362.183 551.458C361.255 558.347 356.35 567.754 350.782 569.078C345.347 570.271 346.275 558.479 346.275 557.95C347.335 553.71 347.865 550.663 347.865 550.663L332.62 433.544L360.725 460.969Z" fill="#FF6089"/>
<path d="M397.977 569.211C403.413 570.536 403.81 562.322 402.75 556.227C403.413 558.744 405.534 564.839 407.522 569.211C409.776 574.245 417.995 588.554 416.139 590.541C414.283 592.661 406.992 591.601 400.629 592.264C394.265 592.926 390.553 593.456 390.553 590.409C390.553 587.362 390.553 582.99 390.553 582.99H387.637C387.637 582.99 387.902 573.715 386.444 569.211C384.985 564.706 386.444 554.637 386.444 554.637C386.444 554.637 390.818 567.489 397.977 569.211Z" fill="#1F296F"/>
<path d="M400.231 547.218C400.231 547.218 401.424 551.193 402.087 553.71C402.219 554.372 402.352 554.902 402.485 555.3C402.485 555.432 402.617 555.697 402.617 556.095C402.617 556.095 402.617 556.095 402.617 556.227C403.81 562.454 403.413 570.536 397.845 569.211C390.686 567.489 386.311 554.637 386.311 554.637L374.512 448.515L397.447 432.219L400.231 547.218Z" fill="#FF6089"/>
<path d="M329.968 325.17C337.26 303.309 345.479 298.805 344.286 287.278C364.304 299.335 388.299 295.89 409.378 287.146C410.173 291.253 415.211 316.028 419.719 325.7C422.768 332.059 415.476 361.074 409.245 384.259L420.381 460.969C359.134 491.044 327.052 467.991 327.052 467.991L329.04 384.259C326.919 358.159 325.593 338.418 329.968 325.17Z" fill="#1F296F"/>
<path d="M390.553 582.99C390.553 582.99 390.553 578.485 389.493 573.318" stroke="#303030" stroke-width="0.75" stroke-miterlimit="10"/>
<path d="M361.918 168.04C353.831 154.129 355.952 145.914 359.134 141.41C358.206 136.773 357.941 130.148 362.846 126.571C371.065 120.742 389.758 122.332 398.905 128.559C407.39 134.256 405.666 137.568 406.196 139.29C406.329 139.82 406.727 140.217 407.522 140.482C407.787 140.615 407.92 140.615 408.185 140.747C413.753 143.397 420.647 154.526 413.09 169.895C405.268 185.793 419.719 174.929 416.935 191.887C415.609 199.704 441.725 213.748 425.949 229.249C411.234 243.822 368.546 235.343 366.956 217.193C361.122 219.312 356.217 218.517 353.301 213.35C339.248 188.045 375.97 191.887 361.918 168.04Z" fill="#1F296F"/>
<path d="M407.522 140.35C406.727 140.085 406.329 139.688 406.196 139.158C406.859 139.688 407.522 140.085 408.185 140.615C408.052 140.615 407.787 140.482 407.522 140.35Z" fill="#1F296F"/>
<path d="M340.707 206.726C341.635 204.341 343.756 202.619 346.407 202.222C356.748 200.764 387.504 197.584 415.609 207.256C421.707 209.376 425.552 215.205 425.287 221.565C424.491 234.283 421.044 239.053 409.113 267.67C409.113 267.67 409.378 286.748 409.511 287.146C388.432 295.89 364.569 299.202 344.419 287.278C343.491 278.799 341.369 272.705 339.381 268.465C333.813 256.144 328.245 247.797 328.378 240.378C328.775 228.189 336.995 218.915 336.995 218.915C336.995 218.915 338.851 211.496 340.707 206.726Z" fill="white"/>
<path d="M369.209 200.632C371.065 203.546 369.74 222.36 369.74 222.36C369.74 222.36 355.289 229.249 353.566 223.817C351.842 218.252 363.111 200.499 363.111 200.499C363.111 200.499 367.486 197.849 369.209 200.632Z" stroke="#1F296F" stroke-width="0.8569" stroke-miterlimit="10" stroke-linecap="round" stroke-linejoin="round"/>
<path d="M380.08 201.426C382.997 199.572 392.939 200.897 392.939 200.897C392.939 200.897 388.697 224.612 384.72 228.984C380.876 233.223 369.74 222.359 369.74 222.359C369.74 222.359 377.164 203.281 380.08 201.426Z" stroke="#1F296F" stroke-width="0.8569" stroke-miterlimit="10" stroke-linecap="round" stroke-linejoin="round"/>
<path d="M239.423 192.152C242.604 189.635 247.112 190.165 249.63 193.212L288.606 240.245L343.358 203.281L337.392 241.57L293.644 263.961C287.015 267.405 278.929 265.153 274.819 258.926L237.699 201.824C235.711 198.777 236.373 194.537 239.423 192.152Z" fill="#AC64F2"/>
<path d="M220.067 166.582C217.151 165.258 215.295 162.475 216.223 162.608C217.151 162.74 224.707 164.198 226.298 165.125C227.756 165.92 235.976 171.484 235.976 171.484C235.976 171.484 241.544 181.421 243.267 185.396C244.063 187.25 245.388 189.768 246.581 192.02C248.04 194.802 247.112 198.247 244.593 199.969C241.941 201.824 238.362 201.294 236.241 198.777L232.661 194.272C227.094 193.345 225.105 187.78 225.105 187.78C221.791 187.118 215.692 181.818 216.62 179.699C217.548 177.579 223.382 169.1 223.382 169.1C223.382 169.1 222.984 167.907 220.067 166.582Z" fill="#FF6089"/>
<path d="M221.923 179.964C223.514 181.686 226.298 183.408 227.094 185.661C227.889 187.913 224.972 187.78 224.972 187.78" stroke="#1F296F" stroke-width="0.8569" stroke-miterlimit="10" stroke-linecap="round" stroke-linejoin="round"/>
<path d="M223.912 175.989C223.912 175.989 226.828 179.169 228.95 180.891C231.203 182.613 230.938 184.468 228.95 184.998" stroke="#1F296F" stroke-width="0.8569" stroke-miterlimit="10" stroke-linecap="round" stroke-linejoin="round"/>
<path d="M252.68 182.878C252.415 183.673 251.487 183.938 250.824 183.541L177.777 143.53C176.849 143 176.186 142.205 176.054 141.145L252.149 181.156C252.68 181.553 252.945 182.216 252.68 182.878Z" fill="white"/>
<path d="M277.073 261.708C277.073 261.708 275.747 255.746 286.353 256.541C296.826 257.336 295.5 263.166 293.644 263.961" stroke="white" stroke-width="0.75" stroke-miterlimit="10"/>
<path d="M337.26 264.093C337.26 264.093 326.521 252.567 325.063 245.28C323.605 237.993 330.499 225.407 335.536 218.65C335.536 218.65 338.718 204.871 343.358 202.751C347.998 200.632 364.039 198.644 363.111 200.499C363.111 200.499 347.07 227.924 348.396 262.238C349.589 296.552 334.343 348.487 335.139 367.036C335.139 367.036 329.173 365.313 320.423 352.329C320.423 352.329 331.029 296.42 334.211 285.291C337.657 274.162 337.26 264.093 337.26 264.093Z" fill="#8B41D2"/>
<path d="M337.26 264.093C337.26 264.093 326.522 252.567 325.063 245.28C323.605 237.993 330.499 225.407 335.536 218.65" stroke="#1F296F" stroke-width="0.8569" stroke-miterlimit="10" stroke-linecap="round" stroke-linejoin="round"/>
<path d="M382.997 248.327C383.659 228.851 389.89 208.316 391.879 202.221C392.277 201.162 393.337 200.499 394.398 200.632C400.761 201.559 416.404 205.401 419.453 207.256C422.768 209.376 426.215 216.663 426.612 228.056C426.877 236.536 417.995 257.336 413.223 267.538C411.367 271.512 410.969 276.017 411.764 280.256L427.01 354.582C424.624 367.83 390.155 379.357 390.155 379.357C390.155 379.357 389.36 314.306 389.89 300.129C390.288 285.953 382.201 271.512 382.997 248.327Z" fill="#8B41D2"/>
<path d="M369.74 184.998C372.656 181.421 395.856 171.352 392.011 180.759C389.095 187.78 388.432 198.247 388.167 203.149C388.034 205.136 387.637 206.991 386.709 208.713C384.322 213.35 379.02 221.697 371.198 222.36C360.327 223.419 363.509 208.051 363.509 208.051C367.221 196.922 369.74 184.998 369.74 184.998Z" fill="#FF6089"/>
<path d="M387.902 183.011C382.599 189.9 375.042 192.815 367.221 195.597C368.414 191.225 369.209 187.515 369.607 185.926C375.705 186.588 381.804 184.071 387.902 183.011Z" fill="#1F296F"/>
<path d="M361.388 143.927C361.653 140.747 362.448 137.568 364.172 134.785C377.163 113.72 405.136 144.06 403.545 151.479C398.375 174.929 390.155 182.878 390.155 182.878C390.155 182.878 373.451 197.849 361.653 186.191C354.229 178.904 356.35 162.475 358.073 158.368C360.327 153.069 361.122 147.239 361.388 143.927Z" fill="#FF6089"/>
<path d="M375.97 160.885C376.103 159.958 376.898 159.428 377.694 159.428C378.622 159.561 379.152 160.356 379.152 161.15" stroke="#1F296F" stroke-width="0.8569" stroke-miterlimit="10" stroke-linecap="round" stroke-linejoin="round"/>
<path d="M360.327 157.308C360.46 156.513 361.388 155.851 362.183 156.116C362.978 156.248 363.641 157.176 363.376 157.971" stroke="#1F296F" stroke-width="0.8569" stroke-miterlimit="10" stroke-linecap="round" stroke-linejoin="round"/>
<path d="M378.622 150.816C380.478 150.816 383.659 151.479 385.913 154.526C388.962 158.633 380.875 153.731 378.489 154.129C376.235 154.526 376.368 150.816 378.622 150.816Z" fill="#1F296F"/>
<path d="M364.834 149.359C365.63 150.154 365.497 153.069 364.304 152.141C363.111 151.081 360.062 152.009 361.785 149.624C362.316 148.962 364.039 148.432 364.834 149.359Z" fill="#1F296F"/>
<path d="M371.993 124.849C385.648 121.669 403.678 141.012 409.246 158.501C414.814 175.989 407.125 168.04 407.125 168.04C407.125 168.04 398.507 172.677 393.867 166.317C389.227 159.958 393.867 151.081 393.867 151.081C393.867 151.081 389.625 151.214 375.44 152.671C361.255 154.129 355.687 145.252 355.687 145.252C355.422 141.94 358.339 128.029 371.993 124.849Z" fill="#1F296F"/>
<path d="M402.882 164.728C406.727 166.45 402.617 177.446 393.204 176.121L394.663 168.57C394.663 168.57 399.038 162.873 402.882 164.728Z" fill="#FF6089"/>
<path d="M379.948 153.996C384.19 154.394 387.106 158.236 386.709 162.475C386.311 166.715 382.466 169.63 378.224 169.232C373.982 168.835 371.065 164.993 371.463 160.753C371.993 156.513 375.705 153.466 379.948 153.996Z" stroke="#1F296F" stroke-width="0.8569" stroke-miterlimit="10" stroke-linecap="round" stroke-linejoin="round"/>
<path d="M362.051 150.419C365.365 150.816 367.751 154.526 367.221 158.633C366.823 162.873 363.641 165.92 360.327 165.523C357.013 165.125 354.627 161.415 355.157 157.308C355.687 153.201 358.736 150.022 362.051 150.419Z" stroke="#1F296F" stroke-width="0.8569" stroke-miterlimit="10" stroke-linecap="round" stroke-linejoin="round"/>
<path d="M372.656 157.441C372.656 157.441 371.596 156.646 369.872 156.381" stroke="#1F296F" stroke-width="0.8569" stroke-miterlimit="10" stroke-linecap="round" stroke-linejoin="round"/>
<path d="M375.042 176.651C375.042 176.651 373.584 179.301 370.27 179.699C366.956 180.096 365.763 179.169 365.497 178.241C365.497 178.109 370.137 175.061 375.042 176.651Z" fill="#F24678"/>
<path d="M365.497 173.869C365.497 173.869 364.172 179.699 369.209 179.699C375.573 179.699 376.236 172.279 376.236 172.279C368.281 175.724 363.509 173.339 363.509 173.339" stroke="#1F296F" stroke-width="0.8569" stroke-miterlimit="10" stroke-linecap="round" stroke-linejoin="round"/>
<path d="M367.353 159.428V156.911C367.221 156.911 367.486 157.971 367.353 159.428Z" fill="#FF6089" stroke="#1F296F" stroke-width="0.8569" stroke-miterlimit="10" stroke-linecap="round" stroke-linejoin="round"/>
<path d="M364.172 163.668C366.293 162.608 367.088 160.885 367.353 159.428L367.486 169.365L363.906 166.185C363.111 165.523 363.244 164.198 364.172 163.668Z" fill="#FF6089"/>
<path d="M375.705 121.669C405.269 127.499 413.488 128.029 411.234 148.829C408.981 169.63 393.868 151.214 393.868 151.214C393.868 151.214 370.535 160.885 356.615 147.239C342.828 133.593 346.142 115.84 375.705 121.669Z" fill="#1F296F"/>
<path d="M372.258 130.016C372.258 130.016 336.067 113.72 352.903 147.239" stroke="#1F296F" stroke-width="0.75" stroke-miterlimit="10" stroke-linecap="round" stroke-linejoin="round"/>
<path d="M414.018 156.248C414.018 156.248 418.26 166.847 414.018 172.677C409.776 178.506 424.094 178.639 417.863 188.973C411.632 199.307 428.734 189.768 426.347 209.641" stroke="#1F296F" stroke-width="0.75" stroke-miterlimit="10" stroke-linecap="round" stroke-linejoin="round"/>
<path d="M226.828 170.027C232.662 170.954 240.483 179.831 240.483 179.831L234.385 190.165C230.143 186.323 231.336 180.758 231.468 179.169C231.734 177.446 222.984 169.365 226.828 170.027Z" fill="#FF6089"/>
<path d="M226.828 170.027C232.662 170.954 240.483 179.831 240.483 179.831L234.385 190.165C230.143 186.323 231.336 180.758 231.468 179.169C231.734 177.446 222.984 169.365 226.828 170.027Z" fill="#FF6089"/>
<path d="M404.871 210.833C412.295 205.931 422.238 208.713 426.082 216.663L449.547 265.683L511.458 305.562C514.639 307.681 515.567 311.921 513.446 315.101C511.59 317.883 508.011 318.81 505.094 317.485L442.123 289.663C435.362 286.748 429.794 281.714 426.215 275.354L400.363 230.176C396.519 223.552 398.507 215.073 404.871 210.833Z" fill="#AC64F2"/>
<path d="M427.275 277.209C427.275 277.209 429.529 273.367 436.423 279.727C443.316 286.086 441.063 289.266 441.063 289.266" stroke="white" stroke-width="0.75" stroke-miterlimit="10"/>
<path d="M369.74 222.359C369.74 222.359 367.751 224.479 367.221 225.937C366.69 227.394 365.895 240.113 365.895 240.113" stroke="#1F296F" stroke-width="0.8569" stroke-miterlimit="10" stroke-linecap="round" stroke-linejoin="round"/>
<path d="M413.488 267.14L399.303 228.189L416.935 259.191L413.488 267.14Z" fill="#1F296F"/>
<path d="M394.795 176.254L407.522 189.105C409.511 191.888 430.059 216.398 422.503 210.701C414.946 205.004 405.003 207.256 392.807 206.329C380.61 205.534 381.538 195.597 386.576 188.045C391.614 180.626 394.795 176.254 394.795 176.254Z" fill="#1F296F"/>
<path d="M370.27 258.264C370.27 258.264 375.44 263.961 382.997 267.008" stroke="#1F296F" stroke-width="0.8569" stroke-miterlimit="10" stroke-linecap="round" stroke-linejoin="round"/>
<path d="M510.264 305.959L513.579 307.681C513.579 307.681 526.836 309.139 530.283 310.596C533.862 311.921 545.13 320.93 546.456 324.64C547.782 328.349 536.513 319.87 534.392 319.473C532.404 319.075 528.692 324.64 524.317 326.494C519.942 328.349 516.097 322.785 516.097 322.785C516.097 322.785 511.59 320.797 508.541 318.015L504.564 315.63C501.912 313.776 502.045 310.199 503.238 308.344C504.564 305.694 507.746 304.634 510.264 305.959Z" fill="#FF6089"/>
<path d="M531.476 316.558C531.21 319.738 525.642 315.366 523.786 316.16C521.798 316.955 518.484 321.195 513.976 316.16L522.858 310.464C522.726 310.464 531.608 314.571 531.476 316.558Z" fill="#FF6089" stroke="#1F296F" stroke-miterlimit="10"/>
<path d="M516.098 322.785C516.098 322.785 515.435 318.28 521.666 322.785" stroke="#1F296F" stroke-width="0.8235" stroke-miterlimit="10"/>
<path d="M519.279 321.327C519.279 321.327 517.688 319.87 519.677 318.81C521.533 317.75 527.764 321.857 527.764 321.857" stroke="#1F296F" stroke-width="0.8235" stroke-miterlimit="10"/>
<path d="M466.118 340.141H636.472V347.825H466.118V340.141Z" fill="#B1E3F1"/>
<path d="M365.895 347.825H465.19V354.449H365.895V347.825Z" fill="#9DBCFE"/>
<path d="M365.895 354.449H465.19V384.126H365.895V354.449Z" fill="white"/>
<path d="M465.19 347.825H627.589V354.449H465.19V347.825Z" fill="#9DBCFE"/>
<path d="M465.19 354.449H627.589V384.126H465.19V354.449Z" fill="#B1E3F1"/>
<path d="M379.02 384.259L372.921 588.687H368.414L370.535 384.259H379.02Z" fill="#B1E3F1"/>
<path d="M464.793 384.259L458.694 588.687H454.055L456.308 384.259H464.793Z" fill="#B1E3F1"/>
<path d="M374.512 384.259L368.414 588.687H363.774L365.895 384.259H374.512Z" fill="white"/>
<path d="M460.285 384.259L454.055 588.687H449.547L451.668 384.259H460.285Z" fill="white"/>
<path d="M629.446 588.687H624.806L618.707 384.259H627.192L629.446 588.687Z" fill="#B1E3F1"/>
<path d="M543.672 588.687H539.032L532.934 384.259H541.419L543.672 588.687Z" fill="#B1E3F1"/>
<path d="M624.01 588.687H619.503L613.405 384.259H621.889L624.01 588.687Z" fill="white"/>
<path d="M538.37 588.687H533.73L527.631 384.259H536.116L538.37 588.687Z" fill="white"/>
<path d="M505.094 276.547C505.625 274.692 507.215 273.367 509.071 273.367H604.787C606.378 273.367 607.439 274.824 607.041 276.282L592.061 334.444C591.53 336.298 589.94 337.623 588.084 337.623H492.368C490.777 337.623 489.716 336.166 490.114 334.709L505.094 276.547Z" fill="white"/>
<path d="M507.878 276.547C508.409 274.692 509.999 273.367 511.855 273.367H607.571C609.162 273.367 610.223 274.824 609.825 276.282L594.845 334.444C594.314 336.298 592.723 337.623 590.867 337.623H495.151C493.561 337.623 492.5 336.166 492.898 334.709L507.878 276.547Z" fill="#9DBCFE"/>
<path d="M557.99 297.215C562.63 297.215 565.812 301.057 564.884 305.694C564.088 310.331 559.581 314.173 554.941 314.173C550.301 314.173 547.119 310.331 548.047 305.694C548.843 300.924 553.218 297.215 557.99 297.215Z" fill="#B1E3F1"/>
<path d="M435.362 334.444H493.428C494.356 334.444 495.151 335.239 495.151 336.166C495.151 337.093 494.356 337.888 493.428 337.888H435.362C434.434 337.888 433.639 337.093 433.639 336.166C433.639 335.239 434.434 334.444 435.362 334.444Z" fill="#9DBCFE"/>
<path d="M356.615 340.141H466.251V347.825H356.615V340.141Z" fill="white"/>
<path d="M367.486 169.365L363.906 166.185C363.111 165.523 363.244 164.198 364.172 163.668C366.293 162.608 367.088 160.885 367.353 159.428" stroke="#1F296F" stroke-width="0.8569" stroke-miterlimit="10" stroke-linecap="round" stroke-linejoin="round"/>
<path d="M234.385 190.033C230.143 186.19 231.336 180.626 231.468 179.036C231.601 177.446 222.851 169.365 226.696 170.027C232.529 170.954 240.351 179.831 240.351 179.831" stroke="#1F296F" stroke-width="0.8569" stroke-miterlimit="10" stroke-linecap="round" stroke-linejoin="round"/>
<path d="M339.381 64.5673H388.432C390.288 64.5673 391.746 66.0246 391.746 67.8794V107.758C391.746 109.215 390.023 110.01 388.962 109.215L384.588 106.036C384.057 105.638 383.394 105.373 382.599 105.373H339.381C337.525 105.373 336.067 103.916 336.067 102.061V67.8794C336.067 66.1571 337.525 64.5673 339.381 64.5673Z" fill="#FFCA60"/>
<path d="M346.54 77.021H381.273" stroke="white" stroke-width="0.75" stroke-miterlimit="10"/>
<path d="M346.54 85.3677H381.273" stroke="white" stroke-width="0.75" stroke-miterlimit="10"/>
<path d="M346.54 93.5819H381.273" stroke="white" stroke-width="0.75" stroke-miterlimit="10"/>
<path d="M58.3311 244.75L150.998 236.801C152.324 236.668 153.517 237.861 153.517 239.45V304.502C153.517 306.092 152.456 307.681 150.998 307.946L58.3311 326.362C56.4751 326.76 55.0168 325.567 55.0168 323.58V248.327C55.0168 246.605 56.4751 245.015 58.3311 244.75Z" fill="#9DBCFE"/>
<path d="M60.8499 246.075L153.517 238.126C154.843 237.993 156.036 239.185 156.036 240.775V305.826C156.036 307.416 154.975 309.006 153.517 309.271L60.8499 327.687C58.9939 328.084 57.5357 326.892 57.5357 324.905V249.652C57.5357 247.797 58.9939 246.207 60.8499 246.075Z" fill="#8AEBFF"/>
<path d="M145.828 255.084L121.302 257.866V252.169L145.828 249.652V255.084Z" fill="white"/>
<path d="M145.828 300.924L121.302 305.429V268.863L145.828 265.683V300.924Z" fill="#8B41D2"/>
<path d="M114.408 280.919L70.5276 287.278V275.354L114.408 269.657V280.919Z" stroke="white" stroke-width="0.75" stroke-miterlimit="10"/>
<path d="M105.526 289.531C110.299 288.736 114.011 292.313 114.011 297.48C114.011 302.647 110.166 307.416 105.526 308.344C100.754 309.271 96.7765 305.694 96.7765 300.395C96.9091 295.228 100.754 290.326 105.526 289.531Z" fill="white"/>
<path d="M79.9401 293.505C84.9778 292.71 89.0874 296.42 89.0874 301.719C89.0874 307.019 84.9778 312.053 79.9401 312.981C74.7698 313.908 70.5275 310.331 70.5275 304.899C70.5275 299.467 74.7698 294.433 79.9401 293.505Z" fill="white"/>
<path d="M200.049 590.541C200.049 592.926 191.962 594.913 181.887 594.913C171.812 594.913 163.725 592.926 163.725 590.541L153.119 530.79H210.787L200.049 590.541Z" fill="#EBF2FF"/>
<path d="M181.887 527.742C197.795 527.742 210.787 529.067 210.787 530.79C210.787 532.512 197.928 533.837 181.887 533.837C165.978 533.837 152.987 532.512 152.987 530.79C152.987 529.067 165.978 527.742 181.887 527.742Z" fill="#B1E3F1"/>
<path d="M181.887 530.525C181.887 530.525 185.466 480.71 192.492 463.751" stroke="#9DBCFE" stroke-width="0.75" stroke-miterlimit="10"/>
<path d="M179.235 530.79C179.235 530.79 182.682 461.366 174.33 445.203" stroke="#9DBCFE" stroke-width="0.75" stroke-miterlimit="10"/>
<path d="M177.114 527.742C177.114 527.742 175.656 460.571 162.134 438.314" stroke="#9DBCFE" stroke-width="0.75" stroke-miterlimit="10"/>
<path d="M216.488 427.582C226.563 427.98 234.783 430.629 241.411 434.207C252.017 439.771 249.63 455.404 237.832 457.657C232.794 458.584 227.226 460.174 221.791 462.426C200.844 471.303 178.838 467.858 179.766 453.682C180.031 453.682 181.887 425.992 216.488 427.582Z" fill="#12AD66"/>
<path d="M181.357 447.72C181.357 447.72 202.038 429.305 240.881 443.878" stroke="#1F296F" stroke-width="0.7798" stroke-miterlimit="10" stroke-linecap="round" stroke-linejoin="round"/>
<path d="M108.31 458.584C121.567 435.531 143.044 437.916 150.468 439.639C152.721 440.168 154.975 441.228 156.566 442.951C163.857 450.502 169.293 469.846 149.142 485.347C136.68 494.886 123.026 499.39 112.95 501.51C104.466 503.365 96.6441 496.078 97.8372 487.466C98.8978 479.915 101.682 469.978 108.31 458.584Z" fill="#12AD66"/>
<path d="M152.986 440.301C152.986 440.301 125.014 440.963 103.405 490.646" stroke="#1F296F" stroke-width="0.7798" stroke-miterlimit="10" stroke-linecap="round" stroke-linejoin="round"/>
<path d="M136.68 392.871C149.142 396.183 165.581 402.807 176.186 416.718C185.996 429.57 186.394 442.023 184.406 451.165C182.682 459.247 173.8 463.619 166.509 459.909C151.793 452.49 128.196 436.459 121.435 408.107C119.048 398.832 127.4 390.486 136.68 392.871Z" fill="#14C664"/>
<path d="M178.705 465.076C178.705 465.076 167.039 416.586 134.692 400.29" stroke="#1F296F" stroke-width="0.7798" stroke-miterlimit="10" stroke-linecap="round" stroke-linejoin="round"/>
<path d="M186.394 445.203C209.992 439.374 230.408 465.076 218.211 499.788C214.764 509.724 201.109 511.049 195.542 501.907C183.08 481.239 167.702 449.84 186.394 445.203Z" fill="#14C664"/>
<path d="M190.636 444.408C190.636 444.408 211.45 450.9 209.196 501.643" stroke="#1F296F" stroke-width="0.7798" stroke-miterlimit="10" stroke-linecap="round" stroke-linejoin="round"/>
<path d="M185.069 499.655C178.97 510.122 171.944 518.203 165.978 523.9C159.217 530.392 147.949 527.478 145.165 518.601C140.657 504.027 137.343 483.624 148.479 473.025C167.039 455.405 199.254 475.278 185.069 499.655Z" fill="#14C664"/>
<path d="M171.149 466.268C171.149 466.268 155.505 478.192 152.986 523.768" stroke="#1F296F" stroke-width="0.7798" stroke-miterlimit="10" stroke-linecap="round" stroke-linejoin="round"/>
<path d="M197.133 449.178L192.493 461.631" stroke="#1F296F" stroke-width="0.7798" stroke-miterlimit="10" stroke-linecap="round" stroke-linejoin="round"/>
<path d="M201.64 455.405L213.439 461.631" stroke="#1F296F" stroke-width="0.7798" stroke-miterlimit="10" stroke-linecap="round" stroke-linejoin="round"/>
<path d="M206.677 468.653L201.64 479.517" stroke="#1F296F" stroke-width="0.7798" stroke-miterlimit="10" stroke-linecap="round" stroke-linejoin="round"/>
<path d="M208.534 478.457L215.295 484.949" stroke="#1F296F" stroke-width="0.7798" stroke-miterlimit="10" stroke-linecap="round" stroke-linejoin="round"/>
<path d="M196.602 440.301L204.954 432.749" stroke="#1F296F" stroke-width="0.7798" stroke-miterlimit="10" stroke-linecap="round" stroke-linejoin="round"/>
<path d="M208.533 438.181L219.935 449.178" stroke="#1F296F" stroke-width="0.7798" stroke-miterlimit="10" stroke-linecap="round" stroke-linejoin="round"/>
<path d="M219.935 438.314L228.287 434.339" stroke="#1F296F" stroke-width="0.7798" stroke-miterlimit="10" stroke-linecap="round" stroke-linejoin="round"/>
<path d="M234.12 441.626L239.025 449.178" stroke="#1F296F" stroke-width="0.7798" stroke-miterlimit="10" stroke-linecap="round" stroke-linejoin="round"/>
<path d="M174.33 451.165L177.777 434.339" stroke="#1F296F" stroke-width="0.7798" stroke-miterlimit="10" stroke-linecap="round" stroke-linejoin="round"/>
<path d="M169.558 440.301L152.987 436.326" stroke="#1F296F" stroke-width="0.7798" stroke-miterlimit="10" stroke-linecap="round" stroke-linejoin="round"/>
<path d="M163.194 428.377L164.785 415.393" stroke="#1F296F" stroke-width="0.7798" stroke-miterlimit="10" stroke-linecap="round" stroke-linejoin="round"/>
<path d="M154.577 416.453C153.915 415.791 134.692 415.261 134.692 415.261" stroke="#1F296F" stroke-width="0.7798" stroke-miterlimit="10" stroke-linecap="round" stroke-linejoin="round"/>
<path d="M144.635 406.119V400.29" stroke="#1F296F" stroke-width="0.7798" stroke-miterlimit="10" stroke-linecap="round" stroke-linejoin="round"/>
<path d="M132.968 449.178V465.474" stroke="#1F296F" stroke-width="0.7798" stroke-miterlimit="10" stroke-linecap="round" stroke-linejoin="round"/>
<path d="M120.507 461.631L111.757 463.751" stroke="#1F296F" stroke-width="0.7798" stroke-miterlimit="10" stroke-linecap="round" stroke-linejoin="round"/>
<path d="M112.552 473.025L114.011 486.274" stroke="#1F296F" stroke-width="0.7798" stroke-miterlimit="10" stroke-linecap="round" stroke-linejoin="round"/>
<path d="M107.117 482.962L101.284 484.949" stroke="#1F296F" stroke-width="0.7798" stroke-miterlimit="10" stroke-linecap="round" stroke-linejoin="round"/>
<path d="M165.713 473.025L173.8 482.962" stroke="#1F296F" stroke-width="0.7798" stroke-miterlimit="10" stroke-linecap="round" stroke-linejoin="round"/>
<path d="M160.013 484.949L147.551 490.646" stroke="#1F296F" stroke-width="0.7798" stroke-miterlimit="10" stroke-linecap="round" stroke-linejoin="round"/>
<path d="M156.698 493.428L167.437 504.822" stroke="#1F296F" stroke-width="0.7798" stroke-miterlimit="10" stroke-linecap="round" stroke-linejoin="round"/>
<path d="M154.975 504.822L147.551 510.122" stroke="#1F296F" stroke-width="0.7798" stroke-miterlimit="10" stroke-linecap="round" stroke-linejoin="round"/>
<path d="M153.782 513.831L156.698 519.263" stroke="#1F296F" stroke-width="0.7798" stroke-miterlimit="10" stroke-linecap="round" stroke-linejoin="round"/>
<path d="M492.235 64.5673L689.102 47.7415C692.019 47.4765 694.67 49.8613 694.67 52.776V220.505C694.67 223.552 692.019 225.804 689.102 225.539L492.368 205.401C490.114 205.136 488.39 203.281 488.39 201.029V68.9394C488.258 66.6871 489.981 64.8323 492.235 64.5673Z" fill="#1F296F"/>
<path d="M487.33 64.5673L684.065 47.7415C686.981 47.4765 689.633 49.8613 689.633 52.776V220.505C689.633 223.552 686.981 225.804 684.065 225.539L487.33 205.401C485.076 205.136 483.353 203.281 483.353 201.029V68.9394C483.22 66.6871 485.076 64.8323 487.33 64.5673Z" fill="#AC64F2"/>
<mask id="mask5_2297_1431" style="mask-type:luminance" maskUnits="userSpaceOnUse" x="483" y="47" width="207" height="179">
<path d="M684.065 47.7415L487.33 64.5673C485.076 64.6998 483.353 66.6871 483.353 68.9394V201.162C483.353 203.414 485.076 205.269 487.33 205.534L683.932 225.539C686.981 225.804 689.5 223.552 689.5 220.505V52.776C689.633 49.8613 686.981 47.4765 684.065 47.7415Z" fill="white"/>
</mask>
<g mask="url(#mask5_2297_1431)">
<path d="M528.957 122.199H515.037L521.666 95.8344C521.533 95.9668 528.957 122.199 528.957 122.199Z" fill="#AC64F2" stroke="white" stroke-width="0.75" stroke-miterlimit="10"/>
<path d="M642.703 138.098C644.029 138.098 645.354 138.23 646.547 138.495L640.582 225.142L553.88 222.757L556.399 139.555L642.703 138.098Z" fill="#1F296F"/>
<path d="M656.225 143.53C660.07 147.372 662.058 152.671 661.66 158.103L656.623 225.539L640.714 225.142L646.68 138.495C650.127 139.158 653.574 140.88 656.225 143.53Z" fill="#404DA5"/>
<path d="M524.45 79.9358L516.893 122.199H491.174L497.273 81.3932C497.273 81.3932 523.787 79.8033 524.45 79.9358Z" fill="#AC64F2" stroke="white" stroke-width="0.75" stroke-miterlimit="10"/>
<path d="M519.81 84.4404L513.844 117.827H495.682L500.455 85.5003C506.022 85.2354 515.037 84.7054 519.81 84.4404Z" fill="#AC64F2" stroke="white" stroke-width="0.75" stroke-miterlimit="10"/>
<path d="M646.812 83.513C646.812 83.513 643.366 77.1536 644.559 73.8415C645.884 70.5293 652.513 81.5257 652.513 81.5257C652.513 81.5257 653.971 71.0592 657.418 69.3369C660.865 67.6146 661.528 79.8034 662.588 81.5257C663.516 83.2481 666.433 75.2988 670.543 74.2389C674.652 73.179 666.3 86.9577 666.3 86.9577C666.3 86.9577 671.205 82.8506 672.266 85.1029C673.327 87.3552 665.637 92.9196 664.975 92.9196L648.536 95.0394C648.801 95.5694 638.858 84.7054 639.123 81.6582C639.388 78.346 646.812 83.513 646.812 83.513Z" fill="#AC64F2" stroke="white" stroke-width="0.75" stroke-miterlimit="10"/>
<path d="M644.028 92.6547H669.084C671.073 92.6547 672.531 94.377 672.266 96.3643L668.687 120.477C668.421 122.067 667.096 123.127 665.505 123.127H648.403C646.812 123.127 645.487 122.067 645.222 120.477L640.847 96.3643C640.582 94.5095 642.04 92.6547 644.028 92.6547Z" fill="#AC64F2" stroke="white" stroke-width="0.75" stroke-miterlimit="10"/>
</g>
<mask id="mask6_2297_1431" style="mask-type:luminance" maskUnits="userSpaceOnUse" x="483" y="47" width="207" height="179">
<path d="M684.065 47.7415L487.33 64.5673C485.076 64.6998 483.353 66.6871 483.353 68.9394V201.162C483.353 203.414 485.076 205.269 487.33 205.534L683.932 225.539C686.981 225.804 689.5 223.552 689.5 220.505V52.776C689.633 49.8613 686.981 47.4765 684.065 47.7415Z" fill="white"/>
</mask>
<g mask="url(#mask6_2297_1431)">
<path d="M689.633 123.524L632.627 123.127L633.555 129.221L694.538 131.473" stroke="white" stroke-width="0.75" stroke-miterlimit="10"/>
</g>
<mask id="mask7_2297_1431" style="mask-type:luminance" maskUnits="userSpaceOnUse" x="483" y="47" width="207" height="179">
<path d="M684.065 47.7415L487.33 64.5673C485.076 64.6998 483.353 66.6871 483.353 68.9394V201.162C483.353 203.414 485.076 205.269 487.33 205.534L683.932 225.539C686.981 225.804 689.5 223.552 689.5 220.505V52.776C689.633 49.8613 686.981 47.4765 684.065 47.7415Z" fill="white"/>
</mask>
<g mask="url(#mask7_2297_1431)">
<path d="M481.364 122.199H544.6L544.203 127.234L526.703 128.294L480.038 127.234" stroke="white" stroke-width="0.75" stroke-miterlimit="10"/>
</g>
<mask id="mask8_2297_1431" style="mask-type:luminance" maskUnits="userSpaceOnUse" x="483" y="47" width="207" height="179">
<path d="M684.065 47.7415L487.33 64.5673C485.076 64.6998 483.353 66.6871 483.353 68.9394V201.162C483.353 203.414 485.076 205.269 487.33 205.534L528.559 209.773L564.221 213.35L591.531 216.133L684.065 225.539C687.114 225.804 689.633 223.552 689.633 220.505V52.776C689.633 49.8613 686.981 47.4765 684.065 47.7415Z" fill="white"/>
</mask>
<g mask="url(#mask8_2297_1431)">
<path d="M552.422 103.121C544.733 93.582 550.301 86.5602 550.301 86.5602C550.301 86.5602 560.111 112.66 552.422 103.121Z" fill="#6F0087"/>
</g>
<mask id="mask9_2297_1431" style="mask-type:luminance" maskUnits="userSpaceOnUse" x="483" y="47" width="207" height="179">
<path d="M684.065 47.7415L487.33 64.5673C485.076 64.6998 483.353 66.6871 483.353 68.9394V201.162C483.353 203.414 485.076 205.269 487.33 205.534L528.559 209.773L564.221 213.35L591.531 216.133L684.065 225.539C687.114 225.804 689.633 223.552 689.633 220.505V52.776C689.633 49.8613 686.981 47.4765 684.065 47.7415Z" fill="white"/>
</mask>
<g mask="url(#mask9_2297_1431)">
<path d="M551.494 141.277C559.183 142.205 563.823 150.154 560.907 157.308L533.2 224.479L507.879 219.71L539.298 148.167C541.551 143.397 546.457 140.615 551.494 141.277Z" fill="#8AEBFF"/>
</g>
<mask id="mask10_2297_1431" style="mask-type:luminance" maskUnits="userSpaceOnUse" x="483" y="47" width="207" height="179">
<path d="M684.065 47.7415L487.33 64.5673C485.076 64.6998 483.353 66.6871 483.353 68.9394V201.162C483.353 203.414 485.076 205.269 487.33 205.534L528.559 209.773L564.221 213.35L591.531 216.133L684.065 225.539C687.114 225.804 689.633 223.552 689.633 220.505V52.776C689.633 49.8613 686.981 47.4765 684.065 47.7415Z" fill="white"/>
</mask>
<g mask="url(#mask10_2297_1431)">
<path d="M560.907 157.308L543.01 200.764C539.563 179.831 540.226 157.176 553.483 141.675C559.846 143.662 563.558 150.817 560.907 157.308Z" fill="#1F296F"/>
</g>
<mask id="mask11_2297_1431" style="mask-type:luminance" maskUnits="userSpaceOnUse" x="483" y="47" width="207" height="179">
<path d="M684.065 47.7415L487.33 64.5673C485.076 64.6998 483.353 66.6871 483.353 68.9394V201.162C483.353 203.414 485.076 205.269 487.33 205.534L528.559 209.773L564.221 213.35L591.531 216.133L684.065 225.539C687.114 225.804 689.633 223.552 689.633 220.505V52.776C689.633 49.8613 686.981 47.4765 684.065 47.7415Z" fill="white"/>
</mask>
<g mask="url(#mask11_2297_1431)">
<path d="M542.479 150.419C542.877 146.047 545.926 142.47 550.169 141.41C555.471 140.085 564.619 138.628 579.732 138.23C597.099 137.7 609.56 138.76 616.984 139.82C621.889 140.482 625.469 144.987 624.938 149.889L618.31 215.073L620.961 234.416L554.941 240.113L555.604 216.928L547.119 191.093C543.673 180.361 541.817 169.1 541.949 157.838C541.949 155.189 542.082 152.671 542.214 150.816C542.479 150.552 542.479 150.551 542.479 150.419Z" fill="#8AEBFF"/>
</g>
<mask id="mask12_2297_1431" style="mask-type:luminance" maskUnits="userSpaceOnUse" x="483" y="47" width="207" height="179">
<path d="M684.065 47.7415L487.33 64.5673C485.076 64.6998 483.353 66.6871 483.353 68.9394V201.162C483.353 203.414 485.076 205.269 487.33 205.534L528.559 209.773L564.221 213.35L591.531 216.133L684.065 225.539C687.114 225.804 689.633 223.552 689.633 220.505V52.776C689.633 49.8613 686.981 47.4765 684.065 47.7415Z" fill="white"/>
</mask>
<g mask="url(#mask12_2297_1431)">
<path d="M575.49 136.64C578.936 135.58 589.675 136.508 589.675 136.508C589.675 136.508 595.11 136.64 595.905 141.807C596.303 144.855 592.856 166.318 578.008 170.027C563.293 173.737 562.365 151.611 564.619 143.662C567.005 135.713 574.296 137.038 575.49 136.64Z" fill="white"/>
</g>
<mask id="mask13_2297_1431" style="mask-type:luminance" maskUnits="userSpaceOnUse" x="483" y="47" width="207" height="179">
<path d="M684.065 47.7415L487.33 64.5673C485.076 64.6998 483.353 66.6871 483.353 68.9394V201.162C483.353 203.414 485.076 205.269 487.33 205.534L528.559 209.773L564.221 213.35L591.531 216.133L684.065 225.539C687.114 225.804 689.633 223.552 689.633 220.505V52.776C689.633 49.8613 686.981 47.4765 684.065 47.7415Z" fill="white"/>
</mask>
<g mask="url(#mask13_2297_1431)">
<path d="M573.501 117.297C573.501 117.297 588.349 115.575 590.205 117.297C590.868 117.96 591.398 143.397 591.398 143.397C591.398 143.397 588.879 160.621 576.683 162.873C567.138 164.595 568.463 148.167 569.391 142.867C570.319 137.7 573.501 117.297 573.501 117.297Z" fill="#FF6089"/>
<path d="M570.982 133.196C576.815 130.678 582.781 128.029 585.83 121.934C582.781 131.076 576.948 138.893 569.259 143.795C569.259 143.53 569.391 143.132 569.391 142.867C569.789 141.012 570.319 137.303 570.982 133.196Z" fill="#1F296F"/>
<path d="M586.493 80.0683C599.22 86.2952 603.462 114.25 582.648 129.354C561.835 144.457 552.29 128.824 552.024 113.588C551.759 98.219 550.169 93.317 550.169 93.317C548.313 78.6109 573.766 73.8414 586.493 80.0683Z" fill="#FF6089"/>
<path d="M560.376 106.433C560.376 106.433 559.714 110.805 558.255 114.78C557.592 116.502 560.376 118.357 563.426 118.49" stroke="#1F296F" stroke-width="0.75" stroke-miterlimit="10" stroke-linecap="round" stroke-linejoin="round"/>
<path d="M560.774 124.452C560.774 124.452 566.872 126.969 571.38 120.609" stroke="#1F296F" stroke-width="0.75" stroke-miterlimit="10" stroke-linecap="round" stroke-linejoin="round"/>
<path d="M582.648 68.5419C591.928 69.7343 597.496 75.8287 600.943 82.983C605.185 91.9921 602.136 102.591 593.917 108.156L593.784 108.288C592.724 105.108 589.542 104.048 588.216 107.228C586.891 110.275 585.697 111.733 584.769 112.395C584.372 112.66 583.841 112.395 583.841 111.998C583.444 101.399 579.864 98.484 579.864 98.484C576.285 97.8216 573.103 96.0992 570.717 94.3769C567.535 91.9921 563.558 90.7997 559.581 91.3297C553.35 91.9921 544.998 91.8596 545.926 85.6327C547.252 75.6962 553.881 64.6998 582.648 68.5419Z" fill="#6F0087"/>
<path d="M568.729 105.373C569.656 105.373 570.452 106.168 570.452 107.096C570.452 108.023 569.656 108.818 568.729 108.818C567.801 108.818 567.005 108.023 567.005 107.096C567.005 106.168 567.801 105.373 568.729 105.373Z" fill="#1F296F"/>
<path d="M554.676 105.373C555.604 105.373 556.399 106.168 556.399 107.096C556.399 108.023 555.604 108.818 554.676 108.818C553.748 108.818 552.953 108.023 552.953 107.096C552.953 106.168 553.748 105.373 554.676 105.373Z" fill="#1F296F"/>
<path d="M568.994 97.1591C570.982 96.7616 574.296 96.7616 577.346 99.5438C581.323 103.253 571.91 99.8088 569.656 100.736C567.138 101.664 566.607 97.8215 568.994 97.1591Z" fill="#1F296F"/>
<path d="M557.858 97.0267C559.316 97.8216 559.714 101.001 557.593 100.206C555.471 99.4114 550.566 101.001 553.085 98.0866C553.748 97.1592 556.267 96.0993 557.858 97.0267Z" fill="#1F296F"/>
<path d="M572.838 95.8342C578.008 95.8342 582.251 100.074 582.251 105.241C582.251 110.408 578.008 114.647 572.838 114.647C567.668 114.647 563.426 110.408 563.426 105.241C563.426 100.074 567.668 95.8342 572.838 95.8342Z" stroke="#1F296F" stroke-width="0.75" stroke-miterlimit="10" stroke-linecap="round" stroke-linejoin="round"/>
<path d="M554.013 95.3043C557.592 95.3043 560.376 99.2789 560.376 104.181C560.376 109.083 557.46 113.058 554.013 113.058C550.434 113.058 547.65 109.083 547.65 104.181C547.517 99.2789 550.434 95.3043 554.013 95.3043Z" stroke="#1F296F" stroke-width="0.75" stroke-miterlimit="10" stroke-linecap="round" stroke-linejoin="round"/>
<path d="M565.016 104.181C565.016 104.181 562.895 102.326 559.581 103.651" stroke="#1F296F" stroke-width="0.75" stroke-miterlimit="10" stroke-linecap="round" stroke-linejoin="round"/>
</g>
<mask id="mask14_2297_1431" style="mask-type:luminance" maskUnits="userSpaceOnUse" x="483" y="47" width="207" height="179">
<path d="M684.065 47.7415L487.33 64.5673C485.076 64.6998 483.353 66.6871 483.353 68.9394V201.162C483.353 203.414 485.076 205.269 487.33 205.534L528.559 209.773L564.221 213.35L591.531 216.133L684.065 225.539C687.114 225.804 689.633 223.552 689.633 220.505V52.776C689.633 49.8613 686.981 47.4765 684.065 47.7415Z" fill="white"/>
</mask>
<g mask="url(#mask14_2297_1431)">
<path d="M595.905 110.938C594.447 113.323 590.868 124.981 590.868 124.981C590.47 119.682 591.531 114.647 591.531 114.647C591.928 111.733 597.231 108.553 595.905 110.938Z" fill="#6F0087"/>
</g>
<mask id="mask15_2297_1431" style="mask-type:luminance" maskUnits="userSpaceOnUse" x="483" y="47" width="207" height="179">
<path d="M684.065 47.7415L487.33 64.5673C485.076 64.6998 483.353 66.6871 483.353 68.9394V201.162C483.353 203.414 485.076 205.269 487.33 205.534L528.559 209.773L564.221 213.35L591.531 216.133L684.065 225.539C687.114 225.804 689.633 223.552 689.633 220.505V52.776C689.633 49.8613 686.981 47.4765 684.065 47.7415Z" fill="white"/>
</mask>
<g mask="url(#mask15_2297_1431)">
<path d="M597.761 100.736C603.992 102.591 600.81 115.575 589.409 114.78L588.084 107.228C588.084 107.228 591.53 98.749 597.761 100.736Z" fill="#FF6089"/>
</g>
<path d="M611.946 201.692L604.788 160.223L620.431 195.862L611.946 201.692Z" fill="#1F296F"/>
<path d="M564.486 190.033L614.598 188.31L603.594 156.911C601.208 150.022 605.053 142.602 611.946 140.615C618.973 138.495 626.396 142.867 627.987 150.022L637.4 192.682C639.256 201.162 632.362 209.111 623.745 208.448L564.088 203.944C568.463 199.969 567.535 194.007 564.486 190.033Z" fill="#8AEBFF"/>
<path d="M556.267 190.298L564.486 190.033C567.668 194.007 568.463 200.102 564.088 204.076L556.001 203.414C551.627 203.149 548.843 198.777 550.301 194.67C551.096 192.02 553.483 190.298 556.267 190.298Z" fill="white"/>
<path d="M533.73 183.938C534.79 183.143 543.142 183.408 543.142 183.408L540.358 187.78C533.73 186.588 532.536 184.733 533.73 183.938Z" fill="#FF6089"/>
<path d="M499.394 157.838L526.836 159.163C528.692 159.296 530.813 160.886 531.476 162.74L546.059 202.487C546.456 203.414 546.191 204.209 545.661 204.739C545.528 204.739 545.528 204.871 545.396 204.871L543.805 205.799C543.805 205.799 543.672 205.534 543.54 205.004L517.689 201.692C516.098 201.427 514.242 200.102 513.579 198.512L497.803 161.018C497.538 160.488 497.538 160.091 497.538 159.693L496.61 159.163L498.201 158.368C498.466 157.838 498.864 157.706 499.394 157.838Z" fill="#EBF2FF"/>
<path d="M497.803 158.633L525.245 159.958C527.101 160.091 529.222 161.68 529.885 163.535L544.468 203.281C545.131 204.871 544.07 206.064 542.347 205.799L516.098 202.354C514.507 202.089 512.651 200.764 511.988 199.174L496.212 161.68C495.417 159.958 496.079 158.501 497.803 158.633Z" fill="#1F296F"/>
<path d="M539.032 184.601C538.237 184.998 537.442 185.263 536.779 185.661C536.779 185.661 536.779 185.661 536.779 185.528C537.574 185.263 538.237 184.866 539.032 184.601Z" fill="#FF6089"/>
<path d="M521.533 192.815C522.594 191.887 528.824 189.105 536.646 185.528C537.442 185.263 538.237 184.866 538.9 184.468C539.298 184.336 539.695 184.203 539.96 184.071C540.756 183.806 541.551 183.541 542.214 183.276C543.805 182.746 545.528 183.011 546.987 183.938L556.134 189.9L558.388 190.033C561.437 190.165 563.956 192.815 563.823 195.995C563.691 199.042 560.907 201.294 557.99 201.294L551.361 201.427C548.312 201.029 544.203 200.764 541.949 200.632C540.756 200.499 539.563 200.234 538.502 199.704C535.453 197.982 528.957 194.405 528.824 193.477C528.824 193.477 518.749 195.2 521.533 192.815Z" fill="#FF6089"/>
<path d="M558.786 190.165L620.431 188.31" stroke="#1F296F" stroke-width="0.75" stroke-miterlimit="10" stroke-linecap="round" stroke-linejoin="round"/>
<path d="M578.008 205.004L618.973 208.448" stroke="#1F296F" stroke-width="0.75" stroke-miterlimit="10" stroke-linecap="round" stroke-linejoin="round"/>
<path d="M508.011 24.1587H551.626C553.217 24.1587 554.543 25.4836 554.543 27.0734V62.58C554.543 63.9049 553.085 64.5673 552.024 63.9049L548.18 61.1226C547.649 60.7252 547.119 60.5927 546.456 60.5927H508.011C506.42 60.5927 505.094 59.2678 505.094 57.678V27.2059C505.094 25.4836 506.42 24.1587 508.011 24.1587Z" fill="#8AEBFF"/>
<path d="M518.616 43.3693C517.811 43.3693 517.158 42.7168 517.158 41.9119C517.158 41.1071 517.811 40.4546 518.616 40.4546C519.422 40.4546 520.074 41.1071 520.074 41.9119C520.074 42.7168 519.422 43.3693 518.616 43.3693Z" fill="#8B41D2"/>
<path d="M529.885 43.3693C529.079 43.3693 528.426 42.7168 528.426 41.9119C528.426 41.1071 529.079 40.4546 529.885 40.4546C530.69 40.4546 531.343 41.1071 531.343 41.9119C531.343 42.7168 530.69 43.3693 529.885 43.3693Z" fill="#8B41D2"/>
<path d="M541.021 43.3693C540.215 43.3693 539.562 42.7168 539.562 41.9119C539.562 41.1071 540.215 40.4546 541.021 40.4546C541.826 40.4546 542.479 41.1071 542.479 41.9119C542.479 42.7168 541.826 43.3693 541.021 43.3693Z" fill="#8B41D2"/>
</svg>
